<?xml version="1.0" encoding="UTF-8"?><svg id="Capa_1" xmlns="http://www.w3.org/2000/svg" xmlns:xlink="http://www.w3.org/1999/xlink" viewBox="0 0 83 81"><defs><style>.cls-1,.cls-2,.cls-3{fill:none;}.cls-4{clip-path:url(#clippath);}.cls-5{fill:#e9eaeb;}.cls-6,.cls-7{fill:#fff;}.cls-8{fill:#0b7668;}.cls-7,.cls-2{stroke:#00574c;}.cls-7,.cls-2,.cls-3{stroke-miterlimit:10;stroke-width:2px;}.cls-3{stroke:#bcc0c4;}</style><clipPath id="clippath"><rect class="cls-1" x="0" y="0" width="83" height="81"/></clipPath></defs><g class="cls-4"><g id="Icon-1"><g id="icon-home-3"><path id="Shape" class="cls-2" d="M10.6,76.8h59.5"/><path id="Shape-2" class="cls-2" d="M71,76.8h4.8"/><path id="Shape-3" class="cls-2" d="M77.5,76.8h2.4"/><path id="Shape-4" class="cls-2" d="M6.3,76.8h2.4"/><g id="Group"><path id="Shape-5" class="cls-5" d="M29,63.2c-2.1,0-3.7-1.7-3.7-3.7V26.6c-11.7,5.9-16.4,20.2-10.5,31.9,5.9,11.7,20.2,16.4,31.9,10.5,2.8-1.4,5.4-3.4,7.4-5.8H29Z"/><path id="Shape-6" class="cls-2" d="M46.7,63.2H29c-2.1,0-3.7-1.7-3.7-3.7V18.5c0-2.1,1.7-3.7,3.7-3.7h0s30.8,0,30.8,0c2.1,0,3.7,1.7,3.7,3.7h0v24.2"/><path id="Shape-7" class="cls-2" d="M43,55.8h-14V22.2h30.8v20.5"/><path id="Shape-8" class="cls-6" d="M64.4,47.4h-1.9c0-1-.9-1.8-1.9-1.9h-1.9c-.5-.6-1.1-.9-1.9-.9h-1.9v-6.5c0-1-.8-1.9-1.9-1.9-1,0-1.9,.8-1.9,1.9v14l-1.2,1.2-2.4-3.8c-1.5-2.1-3.8-.9-3.8,0,0,0,2.8,9,3.2,9.7,.7,1,3.3,3.3,3.3,4.1v3.7h14v-2.8c0-1.3,1.9-2.8,1.9-4.7v-10.3c0-1-.9-1.8-1.9-1.9Z"/><path id="Shape-9" class="cls-2" d="M50.4,67v-3.7c0-.8-2.6-3.1-3.3-4.1-.4-.6-3.2-9.7-3.2-9.7,0-.9,2.3-2.1,3.8,0l2.4,3.8,1.2-1.2v-14c0-1,.8-1.9,1.9-1.9h0c1,0,1.9,.8,1.9,1.9s0,0,0,0v6.5h1.9c.7,0,1.4,.4,1.9,.9h1.9c1,0,1.8,.9,1.9,1.9h1.9c1,0,1.8,.9,1.9,1.9v10.3c0,1.9-1.9,3.4-1.9,4.7v2.8"/><path id="Shape-10" class="cls-2" d="M58.8,45.5v4.7"/><path id="Shape-11" class="cls-2" d="M62.5,47.4v3.7"/><rect id="Rectangle-path" class="cls-8" x="48.6" y="66" width="17.7" height="10.5"/><path id="Shape-12" class="cls-2" d="M66.3,76.5v-10.5h-17.7v10.5"/><path id="Shape-13" class="cls-2" d="M41.1,18.5h7.5"/><path id="Shape-14" class="cls-7" d="M43.9,35.3h-11.2v-9.3s11.2,0,11.2,0v9.3Z"/><path id="Shape-15" class="cls-2" d="M46.7,27.8h10.3"/><path id="Shape-16" class="cls-2" d="M46.7,31.5h7.5"/><path id="Shape-17" class="cls-2" d="M31.8,39h13"/><path id="Shape-18" class="cls-2" d="M31.8,42.7h13"/><path id="Shape-19" class="cls-2" d="M31.8,46.4h7.5"/></g><path id="Shape-20" class="cls-3" d="M44.5,10.6h-8.2c-.7-1.4-2.1-2.3-3.7-2.4-.5,0-1,.1-1.5,.3-.9-2.6-3.4-4.3-6.1-4.3-3.6,0-6.5,4.1-6.5,6.5H8.8"/><path id="Shape-21" class="cls-3" d="M14.8,20.1H6.4"/><path id="Shape-22" class="cls-3" d="M17.2,20.1h2.4"/><path id="Shape-23" class="cls-3" d="M46.9,10.6h2.4"/><path id="Shape-24" class="cls-3" d="M51.7,10.6h2.4"/></g></g></g></svg>