<?xml version="1.0" encoding="UTF-8"?><svg id="Capa_1" xmlns="http://www.w3.org/2000/svg" xmlns:xlink="http://www.w3.org/1999/xlink" viewBox="0 0 83 81"><defs><style>.cls-1,.cls-2,.cls-3,.cls-4,.cls-5,.cls-6{fill:none;}.cls-2{stroke-width:1.5px;}.cls-2,.cls-3,.cls-4{stroke:#00574c;}.cls-2,.cls-3,.cls-4,.cls-5,.cls-6{stroke-miterlimit:10;}.cls-7{clip-path:url(#clippath);}.cls-8{fill:#e9eaeb;}.cls-3{stroke-width:2px;}.cls-4{stroke-width:1.8px;}.cls-5{stroke:#00bca5;}.cls-6{stroke:#bcc0c4;}</style><clipPath id="clippath"><rect class="cls-1" width="83" height="81"/></clipPath></defs><g class="cls-7"><path id="Shape-5" class="cls-8" d="M18.8,42.5c-2.1,0-3.9-1.7-3.9-3.8V5.1C2.8,11.2-2.1,25.8,4.1,37.7c6.1,12,20.9,16.8,33.1,10.7,2.9-1.5,5.5-3.5,7.7-6H18.8Z"/><rect class="cls-1" x="1.4" y="1.8" width="83" height="81"/><path class="cls-4" d="M77.4,73.7c0-.6-.3-1.2-.9-1.2-1.6-.2-3.3-.2-4.9,0-1.9,0-3.7,0-5.6,0q-1.2,0-1.2-1.2s0,0,0-.1c0-2.1,0-4.1,0-6.2h0c0-1.8,0-3.5,0-5.3,0-1.7-1.5-3.1-3.2-3.2-1.7,0-3.3,0-5,0h0c-1.9,0-3.7,0-5.6,0-1.6,0-3.2,0-4.8,0-.5,0-.9,0-1.3,.2-1.6,.6-2.3,1.7-2.3,3.4,0,.6,0,1.2,0,1.8,0,.5-.2,.6-.7,.5-1.8-.2-3.7-.5-5.5-.6-.2-.1-.4-.1-.6-.1-1.7,0-3.2-.5-4.2-2-.1-.1-.2-.3-.4-.4-1.5-1.6-2.8-3.3-5.5-3,.6-.9,1.3-1.4,1.6-2.3,.8-1.6,.5-3.2-.3-4.7-.2-.4-.3-.6,.2-.8,.5-.2,.9-.5,1.3-.9,.7-.6,.7-1.3,.3-1.9-.4-.5-1.2-.6-1.8,0-.8,.7-1.8,1-2.8,1-.7,0-1.4,0-2.2,0-.7,0-1.4,.2-2,.6-1.5,.6-2.3,1.8-2.7,3.3-.6,2.4,.1,4.3,2,5.8-.7,.3-1.3,.5-1.8,1.1,.5,.7,1,1.2,1.7,1.7,.6-.3,1.2-.4,1.9-.4,1.7,0,3.5,0,5.2,0,0,0,0-.2,0-.2,0,0,0,.2,0,.2,.7,0,1.2,.4,1.7,.9,1.2,1.2,2.4,2.4,3.5,3.7,.4,.4,.8,.6,1.3,.6,1.4,.1,2.8,.3,4.2,.4,.4,0,.6,.2,.5,.6,0,.7,0,1.3,0,2,0,.5-.2,.6-.6,.6-.5,0-1,0-1.5,0-.7,0-1.3,0-2,0-1.1,0-2-.3-2.8-.9-.7-.5-1.3-1-2-1.5-.5-.4-1-.4-1.5,0-.5,.3-.4,.7-.4,1.1,0,1.8,0,3.5,0,5.3,0,.6-.2,.8-.8,.8-.9,0-1.7,0-2.6,0-1.4,0-2.7,0-4.1,0-1.1,0-1,.1-1-1,0-1.5,0-2.9,0-4.4,0-1.7,0-3.4,0-5.1,0-1.1,.3-2,1.1-2.7-.7-.5-1.2-1-1.7-1.7-1.2,.8-1.7,2-1.8,3.4,0,1.4,0,2.8,0,4.2,0,2.3,0,4.5,0,6.8,0,.5-.2,.6-.6,.6-1,0-2,0-3,0-.8,0-1.3,.5-1.3,1.3m8.8-21.6c0-1.4,.7-2.4,2.1-2.9,0-.2,0-.3-.1-.4,0,.1,.1,.2,.1,.4,2.3-.2,3.5,.7,3.7,2.9-.2,1.3-.9,2.2-2.2,2.7,0,0,0,0,0,0-2,.2-3.3-.7-3.6-2.7Zm27,6.8c2.1,0,4.2,0,6.3,0,1.9,0,3.7,0,5.6,0,0-.2,0-.3-.1-.5,0,.1,.2,.3,.1,.5,.9,0,1.8,0,2.7,0,.8,0,1.2,.3,1.2,1.2,0,.9,0,1.9,0,2.8h0c0,2,0,4,0,6h0c0,1,0,1.9,0,2.9,0,.5-.1,.7-.6,.6-.4,0-.8,0-1.2,0-4.3,0-8.6,0-13,0-.6,0-1.1,0-1.7,0-.6,0-.9-.1-.8-.8,0-.3,0-.7,0-1.1h0c0-3.4,0-6.8,0-10.1,0-1.5,0-1.5,1.5-1.6-.1-.3-.3-.6-.5-.8,.2,.2,.4,.5,.5,.8Zm-5.5,5.9c1.4,0,1.5,0,1.4,1.6,0,.4,.5,1.1-.4,1.2,0,0-.1,0-.2,0-.6,0-1.4,.3-1.7-.2-.3-.4-.1-1.1-.1-1.7q0-1,1-.9Zm-3.5,5.5c1.5-.6,3.1-.2,4.7-.3,.2,0,.3,.1,.3,.3,0,.6,0,1.2,0,1.8,0,.3-.2,.4-.5,.4-.6,0-1.1,0-1.7,0-1.1,0-2.3,0-3.4,0-.6,0-.7-.2-.5-.7,.2-.6,.6-1,1.1-1.4,0-.2,0-.3-.1-.5,0,.1,.2,.3,.1,.5Zm-3.1-.3c-.3,.8-.5,1.5-.6,2.2,0,.2-.2,.2-.3,.2-1.3,0-2.6,0-3.8,0-.5,0-.7-.1-.7-.6,0-1,0-2,0-3.1,.7,.3,1.2,.8,1.9,.9h0c1.1,.5,2.3,.3,3.5,.4Z"/><path class="cls-2" d="M75.1,9.5c0-2.7-2.5-5.3-5.3-5.3-4.7,0-9.4,0-14.1,0-5.9,0-11.8,0-17.7,0h0c-3.2,0-6.4,0-9.6,0-2.9,0-9.3,0-9.7,.2-2.3,.4-4.1,2.7-4.2,5.1,0,2.5,0,5.1,0,7.6,0,2.5,0,5.1,0,7.6,0,2.4,0,4.7,0,7.1,0,1.5,0,3,0,4.6,0,2.7,1.8,5,4.5,5.5,2,.4,4.1,.1,6.1,.1,2.4,0,4.7,0,7.1,0,2.1,0,4.2,0,6.3,0,.2,0,.4,0,.6,0,1-.2,1.5,.3,2.1,1,.8,1.2,1.7,2.3,2.5,3.4,.6,.8,1.5,.8,2.1,.1,.8-1,1.5-2,2.2-3h0c.2-.2,.5-.4,.6-.7,.4-.8,1-.9,1.8-.9,1.1,0,2.2,0,3.3,0,2.7,0,5.4,0,8.1,0,2.7,0,5.4,0,8.1,0,.2,0,.4,0,.6-.1,2.4-.2,4.4-2.4,4.7-5.1,0-3,0-6,0-9,0-6.1,0-12.2,0-18.4Zm-28.8,32.8s0,0,0,0c0,0,0,0,0,0Zm23.1-2.7c-2.7,0-19.8,0-20.8,0s-.9,.2-1.1,.5c-.5,.7-1,1.4-1.5,2.1,0,0,0,0,0,0-.3,.4-.6,.7-.9,1.1s-.5,.3-.7,0c-.7-1-1.5-2-2.3-3s-.9-.8-1.5-.8c-1.4,0-2.8,0-4.1,0-2.1,0-11.1,0-13.4,0-.9,0-1.8,0-2.8,0-1.9,0-3.4-1.5-3.4-3.4s0-1.6,0-2.4h0c0-2.4,0-4.7,0-7.1h0c0-2.5,0-4.9,0-7.4h0c0-1.8,0-5.6,0-8.5s1.3-2.9,2.9-2.9,2.6,0,3.9,0h0c2.1,0,4.2,0,6.3,0,0,0,0,0,0,0,2.3,0,4.5,0,6.8,0,2.7,0,5.5,0,8.2,0,5.4,0,10.8,0,16.3,0,2.5,0,5,0,7.5,0s3.7,1.7,3.7,3.7c0,4.6,0,10.8,0,14.4h0c0,3.1,0,6.1,0,9.2h0c0,.1,0,.3,0,.4,0,2.9-1.8,3.8-3.1,4.1Z"/><g><path class="cls-5" d="M40.1,14.9c-.6,.6-1.4,.8-2.2,.7-.8,0-1.6,0-2.5,0-1.9,0-3.8,0-5.7,0h0c-2.1,0-4.2,0-6.3,0-.2,0-.5,0-.7,.2-.4,.2-.6,.6-.6,1,0,2.2,0,4.4,0,6.6,0,2,0,4.1,0,6.1,0,1.6,0,3.2,0,4.7,0,.8,.4,1.3,1.3,1.3,1.6,0,3.2,0,4.7,0h0c1.8,0,3.6,0,5.4,0,2.1,0,4.2,0,6.3,0,.7-.1,1-.6,1-1.3,0-1.5,0-2.9,0-4.4,0-1.9,0-3.8,0-5.7,0-.3,0-.6,.2-.8,1.4-1.1,2.8-2.3,4.1-3.5-.1-.1-.2-.3-.3-.4l.3,.4c1.9-1.1,2-3.8,.8-5.1-1.7-1.9-4-1.7-5.8,.3Zm-1.7,4.1c0,0-.1-.2-.2-.2,0,0,.2,.2,.2,.2Zm-.2,14.2c-2.1,0-4.3,0-6.4,0-1.8,0-3.6,0-5.4,0,0,.2,.1,.3,.2,.4,0-.1-.2-.3-.2-.4-.6-.1-1.4,.3-1.8-.2-.3-.4-.1-1.1-.1-1.7h0c0-2,0-4.1,0-6.1h0c0-2.4,0-4.8,0-7.2h0c2.4,0,4.8,0,7.2,0,0-.2-.1-.4-.3-.5,.1,.1,.3,.3,.3,.5h4.6c0,0,0,.1,0,.2-1.3,1.2-2.7,2.4-4,3.5,.2,.3,.5,.6,.8,.8-.3-.3-.6-.5-.8-.8-.9,.9-2.1,1.4-2.6,2.6-.5,.8-1,1.6-1.5,2.3-.2,.4-.3,.8-.1,1.2,.1,.3,0,.4-.2,.6-.2,.1-.4,.3-.6,.5-.4,.4-.5,1-.2,1.5,.3,.5,.9,.7,1.3,.4,.8-.5,1.5-.6,2.4-.7,1.2,0,2.4-.7,3.5-1.3,1.1-.6,1.9-1.5,2.8-2.2,.4-.3,.9-.7,1.4-1.1,.2,.9,0,1.7,0,2.5,0,0,0,0,0,0,0,1.5,0,3,0,4.5,0,.2,.1,.6-.3,.6,0,.2,0,.3,.2,.5,0-.1-.1-.3-.2-.5Zm-6.4-6.1c0,.4-.5,.3-.8,.5-.3,0-.6-.2-.6-.5,0-.3,.2-.8,.6-.8,.4,0,.7,.5,.7,.8Zm8.4-6.3c-.3,.2-.5,.5-.8,.8-1.4,1.1-2.7,2.2-4,3.4,0,0,0,0,0,0-.3,0-.4,.3-.6,.5q-.7,.6-1.4,0t.1-2c1.6-1.4,3.2-2.7,4.8-4.1,0,0,0,0,0,0,.2-.1,.3-.2,.5-.4q.8-.7,1.5,.1c.8,1,.8,1-.2,1.8Zm-3.9,4.9c-.2-.2-.3-.3-.5-.5,.2,.1,.4,.3,.5,.5Zm7.2-7.6c-.4,.4-.8,.3-1.1-.2-.2-.3-.4-.5-.7-.8-.2-.2-.3-.4-.2-.6,.2-.2,.5-.4,.7-.6,.6-.4,1.2-.3,1.6,.2,.4,.5,.4,1.1-.1,1.6-.1,.1-.2,.2-.3,.4,0,0,0,0,0,0Z"/><path class="cls-6" d="M63,28.5c-1,0-1.9,0-2.9,0s-1.9,0-2.9,0c-.7,0-1.2,.5-1.2,1.2,0,.7,.5,1.2,1.2,1.2,1.9,0,3.8,0,5.7,0,.8,0,1.2-.5,1.3-1.1,0-.7-.5-1.2-1.3-1.2Z"/><path class="cls-6" d="M57.3,25c0-.7-.5-1.2-1.4-1.2-1.8,0-3.7,0-5.5,0-.9,0-1.4,.5-1.4,1.2,0,.7,.5,1.1,1.4,1.2,.9,0,1.8,0,2.6,0,.9,0,1.9,0,2.8,0,.9,0,1.4-.4,1.4-1.2Z"/><path class="cls-6" d="M59.7,26.1c.6,0,1.1,0,1.7,0,.6,0,1.1,0,1.7,0,.8,0,1.2-.5,1.2-1.2,0-.7-.5-1.2-1.2-1.2-1.1,0-2.3,0-3.4,0-.7,0-1.2,.5-1.2,1.2,0,.7,.5,1.1,1.2,1.1Z"/><path class="cls-6" d="M53.7,28.5c-.6,0-1.1,0-1.7,0-.6,0-1.2,0-1.8,0-.7,0-1.2,.5-1.2,1.2,0,.6,.5,1.1,1.2,1.1,1.2,0,2.3,0,3.5,0,.7,0,1.2-.5,1.2-1.1,0-.7-.5-1.2-1.2-1.2Z"/><path class="cls-6" d="M50.2,21.5c.4,0,.8,0,1.2,0,.4,0,.8,0,1.2,0,.6,0,1.1-.5,1.1-1.2,0-.6-.4-1.1-1.1-1.2-.8,0-1.7,0-2.5,0-.7,0-1.1,.5-1.1,1.1,0,.7,.4,1.2,1.1,1.2Z"/><path class="cls-6" d="M52.7,33.2c-.8,0-1.7,0-2.5,0-.7,0-1.1,.5-1.1,1.1,0,.7,.4,1.1,1.1,1.2,.4,0,.8,0,1.2,0,.4,0,.8,0,1.2,0,.7,0,1.1-.5,1.1-1.2,0-.6-.4-1.1-1.1-1.1Z"/></g><path id="Shape" class="cls-3" d="M9.8,77.4h59.5"/><path id="Shape-2" class="cls-3" d="M70.6,77.4h4.8"/><path id="Shape-3" class="cls-3" d="M77,77.4h2.4"/><path id="Shape-4" class="cls-3" d="M5.9,77.4h2.4"/></g></svg>