<?xml version="1.0" encoding="UTF-8"?>
<svg id="Capa_1" data-name="Capa 1" xmlns="http://www.w3.org/2000/svg" viewBox="0 0 83 81">
  <defs>
    <style>
      .cls-1 {
        fill: #00574c;
      }

      .cls-2 {
        fill: #00bca5;
      }

      .cls-3 {
        stroke: #00574c;
      }

      .cls-3, .cls-4 {
        fill: none;
        stroke-miterlimit: 10;
        stroke-width: 2px;
      }

      .cls-4 {
        stroke: #bcc0c4;
      }

      .cls-5 {
        fill: #e9eaeb;
        opacity: .67;
      }
    </style>
  </defs>
  <path id="Shape" class="cls-3" d="M8.74,76.96h59.53"/>
  <path id="Shape-2" class="cls-3" d="M69.51,76.96h4.76"/>
  <path id="Shape-3" class="cls-3" d="M75.93,76.96h2.38"/>
  <path id="Shape-4" class="cls-3" d="M4.81,76.96h2.38"/>
  <circle class="cls-5" cx="22.42" cy="23.73" r="11.86"/>
  <g>
    <path class="cls-1" d="M70.35,58.43c-.48-1.09-1-2.14-.81-3.38,.02-.11-.01-.22-.02-.33,0-1.91,0-3.83,0-5.74-.04,0-.08,0-.11,0,.03,0,.07,0,.11,0,0-.31,.02-.62,.02-.93,0-.71-.11-1.37-.86-1.68-.31-.13-.23-.39-.24-.62-.04-1.28,.08-2.57-.06-3.85,.09-2.09,.11-4.19,0-6.28-.01-.57,.28-.71,.82-.68,.91,.04,1.46-.38,1.5-1.06,.03-.4-.17-.74-.37-1.05-1.5-2.38-2.29-4.92-1.9-7.76,0-.04,0-.09,0-.13-.01-.49-.17-.9-.53-1.25-1.41-1.39-2.8-2.79-4.2-4.19-.3-.3-.64-.51-1.05-.51-1.8,0-3.6,.02-5.39,.04-1.03-.02-2.07-.05-3.1-.04-.39,0-.56-.1-.54-.52,.02-.42-.03-.83-.04-1.25,.01-1.67,.06-3.33,.03-5-.01-.76-.48-1.16-1.25-1.16-1.22-.01-2.45-.04-3.67,.02-.67,.03-.82-.2-.79-.82,.05-1.2,.02-2.4,.01-3.6,0-.77-.47-1.29-1.13-1.31-.68-.02-1.14,.48-1.14,1.27,0,1.04,.01,2.09,.02,3.13,.1,0,.18,.03,.25,.08-.07-.05-.15-.08-.25-.08,0,.18-.04,.36-.02,.53,.09,.58-.13,.77-.72,.75-1.06-.05-2.12-.01-3.18-.01-1.55,0-1.86,.32-1.81,1.88,0,.07,.02,.13,.02,.2,0,1.73-.02,3.46-.03,5.19,0,.26,.09,.54-.14,.76,0,.04-.01,.09-.01,.13,0-.04,0-.08,.01-.13-2-.09-4.01-.08-6.01,0-.98-.02-1.95-.04-2.93-.04-.29,0-.58,.1-.79,.31-.49,.51-1.07,.94-1.48,1.53-.99,.87-1.9,1.83-2.82,2.78-.45,.29-.63,.74-.64,1.24-.01,1.1,.01,2.21,.02,3.31,.03,.66-.2,1.23-.51,1.79-.2,.36-.34,.75-.5,1.13-.5,.74-.88,1.53-1.2,2.36-.26,.7,.2,1.4,.95,1.51,.22,.03,.44,.03,.66,0,.43-.05,.58,.11,.57,.56-.02,1.15,.01,2.3,.02,3.46,.03,0,.07,0,.1,0-.03,0-.07,0-.1,0-.06,2.4-.05,4.81,0,7.21,.91,.67,1.73,1.44,2.36,2.4h4.37c-.84,.62-1.89,.71-2.77,1.2h0c-.9,.31-1.8,.62-2.7,.93-.25,.09-.5,.16-.78,.17-.35,0-.51-.09-.52-.48-.08-1.8-.09-1.8,1.67-1.8,.24,0,.49,0,.73-.01-.62-.96-1.44-1.73-2.36-2.4-.31,.26-.68,.12-1.02,.13-.8,.04-1.28,.49-1.28,1.29,0,.95,.01,1.9,.02,2.85,0,.2-.02,.4-.03,.6-.01,1.11,.13,.99-1,1-2.65,0-5.29,0-7.94,0-.64,0-1.13,.21-1.23,.93-.18,.24-.1,.51-.1,.77,0,6.08,0,12.16-.02,18.23,0,.73,.18,1.3,.8,1.69h9.88c.59-.4,.85-.94,.8-1.67-.05-.68,.01-1.36-.02-2.04-.02-.42,.11-.63,.55-.55,.08,.04,.15,.09,.24,.11,4.16,.76,8.31,1.53,12.47,2.26,1.41,.25,2.81,.59,4.25,.71,1.85,.45,3.72,.76,5.59,1.05,1.62,.25,2.92-.69,4.3-1.31,0,0,0,0,0,0,1.54-.56,3.02-1.26,4.52-1.92,1.51-.66,3.03-1.32,4.54-1.98,1.53-.61,3.06-1.25,4.54-1.98,.99-.33,1.95-.73,2.86-1.24,.68-.38,1.3-.85,1.69-1.56,.2-.32,.42-.62,.58-.95,.65-1.35,.82-2.77,.21-4.16Zm-8.05-3.23s0,0,0,0c-.52,.15-1.04,.33-1.6,.3-.7-.04-1.4,0-2.11,0-.73,0-1.46,0-2.19-.01-.19,0-.48,.05-.47-.22,.02-.71-.19-1.44,.13-2.14,1.96,0,3.92,0,5.87,0h0c1.55,0,3.11,.03,4.66,0,.49,0,.77,.09,.68,.65-.06,.37,.15,.85-.09,1.1-.27,.28-.6-.17-.94-.23-1.38-.22-2.69-.08-3.94,.55Zm1.18,1.39c-.39-.41-.86-.74-1.11-1.25,.26,.51,.73,.85,1.11,1.25Zm-10.28,1.86c-.43,.17-.9,.25-1.29,.51-.57,.19-1.15,.34-1.7,.58-.71,.31-1.36,.31-2.01-.14-.25-.17-.55-.29-.82-.42,0,.04,0,.07,0,.11,0-.03,0-.07,0-.11-.41-.33-.89-.53-1.34-.8-.16-.1-.5-.1-.4-.45,0,0,0,0,0,0,1.56,.07,3.12,.07,4.67,0h0c.93,.01,1.86,.02,2.79,.04,.2,0,.48-.08,.51,.26,.03,.3-.22,.34-.42,.42Zm-3.41,3.44c-.07-.31-.31-.5-.54-.7,.23,.2,.47,.38,.54,.7Zm-4.5-4.92c.18,.19,.32,.39,.35,.65-.03-.26-.17-.46-.35-.65Zm2.6-12.66s-.05,0-.07,0c.02,0,.04,0,.07,0,.14-.46,.52-.25,.78-.25,1.51-.02,1.52-.01,1.5,1.51,0,.27,.2,.65-.26,.78-.53-.01-1.06-.03-1.59-.03-.32,0-.43-.12-.42-.43,0-.53-.01-1.06-.02-1.59Zm-4.55,0c.15-.44,.52-.25,.79-.25,1.52-.02,1.53-.01,1.5,1.5,0,.27,.19,.64-.25,.79,.04,.25,.17,.43,.32,.6,.06,.07,.13,.13,.19,.2-.06-.07-.13-.13-.19-.2-.15-.17-.29-.35-.32-.6-.53,0-1.06-.03-1.59-.02-.31,0-.43-.12-.43-.43,0-.53-.02-1.06-.02-1.59Zm10.31,6.41c-.86,.36-1.16,.23-1.41-.58-.16-.52-.38-1.02-.58-1.53,0,0,0,0,0,0,.49,0,.97,.02,1.46-.02,.42-.03,.54,.15,.52,.54-.02,.53,0,1.06,0,1.59Zm5.61-14.99c-.04-.67,.2-.85,.82-.78,.39,.04,.79,0,1.19-.02h0c1.42,0,2.83,.04,4.25,.02,.46,0,.61,.13,.6,.6-.03,1.15,0,2.3-.01,3.45,0,.19,.06,.41-.17,.53,.04,.07,.08,.14,.12,.21-.04-.07-.08-.14-.12-.21-1.96,0-3.92,0-5.87,0,0,0,0,0,0,0-.65,.09-.9-.19-.79-.83,.01-.08-.01-.17-.02-.26-.16-.06-.3-.14-.42-.23,.13,.09,.27,.17,.42,.23,0-.9,.06-1.81,0-2.71Zm2.01-.92c-.02-.15-.1-.26-.19-.36,.1,.1,.18,.21,.19,.36Zm-1.7-2.02s.01,.03,.02,.04c0-.01-.01-.03-.02-.04Zm.11,.2s.03,.05,.05,.08c-.02-.03-.03-.05-.05-.08Zm.19,.25c.04,.05,.09,.1,.14,.15-.05-.05-.09-.1-.14-.15Zm3.97,12.12c-.05-.43,.23-1.1-.16-1.23-.58-.2-1.27-.08-1.91-.05-.25,0-.19,.26-.2,.43,0,.42-.03,.85,0,1.27,.04,.44-.15,.61-.56,.59,0,.04,0,.08,0,.12,0-.04,0-.08,0-.12-.55-.13-1.32,.24-1.62-.18-.27-.39-.09-1.1-.11-1.66,0-.07-.01-.13-.02-.2h0c0-.68,.03-1.36,.01-2.04,0-.37,.11-.51,.49-.5,.68,.02,1.36,0,2.04-.02,.95,0,1.91,.02,2.86,.02,1.44,0,1.44,0,1.44,1.48,0,.98,.02,1.95,.04,2.93,.05,0,.1,0,.15,0-.05,0-.09-.01-.15,0-.68,.29-1.39,.09-2.09,.13-.2,0-.22-.18-.22-.35,0-.2,.02-.4,0-.6Zm-5.42-7.56c.05,.06,.11,.12,.16,.17-.06-.06-.11-.11-.16-.17Zm1.7,1.82s0,.02,.01,.03c0,0,0-.02-.01-.03Zm.21,.33s.02,.02,.02,.03c0-.01-.02-.02-.02-.03Zm5.92,.03c.1,.12,.2,.24,.31,.35,.08,.08,.16,.16,.24,.23-.08-.08-.16-.15-.24-.23-.11-.11-.21-.23-.31-.35Zm.26,6.29s-.07-.04-.11-.06c.04,.02,.07,.04,.11,.06Zm-7.39-2.03s-.06-.03-.08-.04c.03,.01,.05,.03,.08,.04Zm3.64,4.33c1.29,0,2.58,.05,3.86,0,.58-.02,.74,.18,.68,.72-.05,.48,.13,1.08-.1,1.43-.26,.38-.91,.05-1.38,.18-.03,.21,.08,.35,.2,.48-.13-.13-.23-.27-.2-.48-1.83-.06-3.65-.09-5.48,.03-1.25-.17-2.51-.06-3.77-.06-.52,0-.73-.15-.66-.67,.03-.19,0-.4,0-.6q0-.99,.95-1.04h0c1.96,0,3.92,0,5.87,0Zm-12.45-1.56c.12,.13,.25,.25,.37,.37-.13-.12-.25-.25-.37-.37Zm.55,5.48c-.05-.05-.11-.09-.16-.14,.06,.04,.11,.09,.16,.14Zm-.77,4.57c.15,.16,.26,.32,.27,.54,0-.22-.12-.39-.27-.54Zm.54-1.57c.51-.68,1.14-1.16,1.34-1.93,0,0,0,0,0,0,.29-.7,.9-.39,1.37-.38,.52,.01,.31,.5,.33,.79,.02,.51-.02,1.02-.04,1.53h-2.99Zm16.12-24.81c.3,.64,.62,1.26,1.01,2.03h-2.32c-1.96,0-3.92,0-5.87,0h0c-.34-.06-.21-.35-.27-.55,0-.13,.02-.26,.02-.4,.01-1.36,.01-1.35,1.41-1.36,.86,0,1.72-.03,2.58-.05,0,0,0,0,0,0,.95,.02,1.9,.04,2.85,.05,.25,0,.48-.01,.61,.27Zm-1.26-4.83c.47,0,.66,.09,.66,.62,0,1.67,.02,1.67-1.66,1.67-.93,0-1.86,.01-2.8,.02-.6,0-1.19-.04-1.79-.02-.45,.02-.61-.1-.61-.58,0-1.7-.02-1.7,1.68-1.7,.29,0,.57-.02,.86-.04,.02-.17-.05-.29-.14-.4,.09,.1,.15,.23,.14,.4,1.22,.01,2.44,.04,3.66,.03Zm-6.13-4.59c.33,0,.68,.06,1-.01,2.03-.45,2.95,1.04,4.2,2.36h-4.47c-.63,.07-.87-.19-.79-.83,.06-.5,.04-1.01,.06-1.51-.48-.33-.87-.76-1.27-1.18,.4,.42,.79,.85,1.27,1.18Zm-10.21-8.06c0-.11-.05-.21-.12-.29,.07,.09,.11,.18,.12,.29Zm-5.51,.12c1.84,0,3.67-.02,5.51-.03h0c.57,.01,1.14,.04,1.71,.03,.33,0,.48,.09,.48,.44,0,.57,.04,1.14,.06,1.71,.28,.09,.5,.26,.69,.45,.08,.08,.16,.17,.24,.26,.05,.06,.1,.12,.16,.18-.05-.06-.1-.12-.16-.18-.08-.09-.16-.18-.24-.26-.19-.19-.41-.36-.69-.45-.17,.97-.06,1.94-.06,2.91,0,.47-.16,.62-.61,.6-.78-.03-1.55-.02-2.33,0-.35,0-.47-.12-.46-.46,.02-.82,0-1.64,.01-2.46,0-.34-.11-.45-.45-.47-1.83-.09-1.83-.1-1.82,1.69,0,.55,0,1.11,0,1.66h0c-1,.01-1.99,0-2.99,.04-.4,.01-.47-.18-.47-.52,0-1.26,0-2.52-.02-3.78,.07-1.35,.07-1.35,1.44-1.35Zm-6.61,7.91c1.46,.03,2.92,0,4.37,0,0,0,0,0,0,0,2.09,0,4.18,0,6.27,0,0-.03,0-.06,0-.09,0,.03,0,.06,0,.09,2.82,0,5.64,.02,8.46,.03q.9,0,.9,.91c0,2.8,.02,5.59,.03,8.39,.28,0,.48,.12,.66,.27-.19-.15-.39-.27-.66-.27,0,2.09,0,4.18,0,6.27,.22-.03,.38,.04,.53,.14-.15-.11-.32-.18-.53-.14,0,1.91,0,3.83,0,5.74-.01,.75-.03,1.51-.03,2.26q0,1.46-1.48,1.49c-.09,0-.18,.02-.26,.03-.75-.01-1.51-.05-2.26-.02-.45,.02-.57-.15-.55-.58,.03-.91,.02-1.82,0-2.72,0-.78-.44-1.25-1.23-1.25-1.95,0-3.9,0-5.85,.02,0,.02,0,.05,0,.07,0-.02,0-.04,0-.07-1.02,0-2.05-.03-3.07-.02-.55,0-1,.21-1.17,.79-.02,.97-.08,1.94-.03,2.9,.03,.63-.12,.96-.8,.87-1.06,0-2.13-.04-3.19-.02-.43,0-.58-.12-.57-.57,.01-1.06-.02-2.13-.04-3.19-.23,.01-.43-.02-.6-.19-.77-.78-1.55-1.56-2.33-2.33-.15-.15-.23-.32-.21-.53-1.79,0-3.59-.03-5.38,0-.51,0-.64-.16-.63-.64,.03-1.04,.06-2.08,0-3.12-.04-.66,.2-.87,.8-.82-.08-.7-.76-.93-1.12-1.41-.19-.26-.54-.42-.48-.82-.21-.11-.59,.18-.66-.27-.03,0-.06-.01-.09-.02,.03,0,.06,.01,.09,.02,.28-.52,.57-1.04,.83-1.57,.14-.28,.3-.48,.63-.48,.01-.36-.21-.57-.45-.75,.23,.19,.46,.39,.45,.75,2.03,.01,4.07,.05,6.1,.02,.59,0,.74,.18,.79,.72,.16,1.51,.18,1.51-1.56,1.58,0,.17,.09,.29,.21,.4,1.03,1.03,2.06,2.06,3.09,3.09,.14,.15,.29,.27,.51,.24,.07-1.82,.07-3.65,0-5.47,0,0,0,0,0,0,.06-1.38,.07-2.76,0-4.14,0,0,0,0,0,0,.06-1.69,.07-3.38,0-5.07-.03-.36,.06-.53,.5-.52Zm-3.91,0c1.32,.1,1.16-.13,1.18,1.19,0,.04,0,.09,0,.13q0,1.02-1.04,1.06s0,.09,0,.13c0-.04,0-.09,0-.13h-4.13c.28-.59,.79-.84,1.07-1.28,.73-1.01,1.74-1.19,2.92-1.1Zm.43,4.62c.63-.01,.83,.2,.75,.79-.03,.28-.03,.58,0,.86,.05,.5-.17,.69-.65,.66,0,.07,0,.14,.01,.21-.01-.07-.02-.14-.01-.21-1.86,0-3.72-.03-5.58,0-.53,0-.74-.16-.68-.68,.07-.54-.12-1.1,.12-1.64,2.01,.01,4.02,.05,6.03,.02Zm-7.76,6.56c-.21-.07-.35-.23-.49-.4,.14,.16,.28,.33,.49,.4Zm-.52,6.56s.07,0,.09,.02c-.02-.02-.05-.02-.09-.02Zm6.55,5.19c-.47-.32-1.16-.09-1.75-.1-.28,0-.3,.2-.3,.41,0,.44-.02,.89,0,1.33,.03,.42-.15,.52-.54,.53-1.82,.04-1.82,.06-1.82-1.77,0-.71,.04-1.42-.01-2.13-.04-.53,.16-.73,.67-.68-.64-.95-1.48-1.71-2.33-2.45,.85,.74,1.69,1.51,2.33,2.45,1.86,0,3.73,.03,5.59,0,.53,0,.69,.15,.67,.67-.04,1.29-.02,2.57-.03,3.86-.62,0-1.24,0-1.86,.03-.39,.02-.52-.16-.48-.51,0-.09,0-.18,0-.27-.05-.48,.23-1.14-.13-1.39Zm-10.04,26.72c0,.4-.11,.55-.53,.54-1.89-.02-3.78-.03-5.67,0-.58,.01-.63-.24-.63-.71,.01-5.07,0-10.14,0-15.21,0-.26,.08-.54-.09-.78-.02-.33,.15-.41,.45-.4,2,0,3.99,.02,5.99,0,.53,0,.48,.31,.48,.65,0,3.59,0,7.18,0,10.78,0,.29,0,.58,.01,.86h0c0,1.42-.02,2.85,0,4.27Zm1-3.51c-.07-.07-.14-.13-.21-.2,.07,.06,.14,.13,.21,.2Zm41.35-3.06c-.14,.07-.28,.13-.42,.19h0c-1.51,.66-3.03,1.32-4.54,1.98,.02,.19,.12,.34,.23,.48-.11-.14-.2-.29-.23-.48-1.6,.64-3.21,1.28-4.74,2.09,.42,.53,1,.92,1.38,1.48-.39-.56-.96-.95-1.39-1.48-1.29,.38-2.46,1.04-3.71,1.53-.26,.1-.51,.24-.77,.36,0,0,0,0,0,0-.18,.07-.38,.12-.55,.23-1.34,.85-2.74,.56-4.15,.24-1.57-.35-3.14-.64-4.73-.86-.32-.05-.65-.11-.97-.16,0,0,0,0,0,0-1.34-.4-2.73-.53-4.09-.8-2.01-.39-4.04-.73-6.06-1.1-1.59-.29-3.17-.59-4.76-.86-.43-.07-.61-.22-.6-.68,.01-4,.01-8,0-12,0-.41,.16-.59,.53-.7,.42-.13,.86-.22,1.23-.48,0-.03,0-.06,0-.09,0,.03,0,.06,0,.09,1.68-.5,3.33-1.09,4.95-1.77-.4-.37-.85-.71-1.21-1.12,.36,.42,.81,.75,1.21,1.12,1.5-.44,2.97-.98,4.41-1.56,.65-.26,1.37-.35,1.98-.71,0-.04,0-.07,0-.11,0,.03,0,.07,0,.11,.02,0,.05,0,.07,0,1.55-.78,3.22-.66,4.87-.67,0,0,0,0,0,0,1.69,0,3.38,0,5.07,0,0,0,0,0,0,0,2.15,.19,3.12,1.3,3.06,3.47-.42,1.3-1.3,2.07-2.65,2.29-1.56,0-3.12,0-4.67,0-1.29,0-2.58-.01-3.86-.02-.68,0-1.18,.34-1.3,.9-.14,.62,.22,1.01,.7,1.31,.36,.22,.74,.41,1.11,.61,2.68,1.48,5.35,2.97,8.03,4.45,.72,.4,1.46,.63,2.29,.38,0,0,0,0,0,0,1.25-.25,2.42-.74,3.59-1.23,1.37-.39,2.7-.89,4.02-1.45,1.14-.33,2.26-.72,3.34-1.2,1.05-.29,2.07-.65,3.06-1.1,2-.4,3.35,.1,4.18,1.59,.64,1.15,.46,2.31-.06,3.44,0,0,0,0,0,0-.95,1.31-2.5,1.6-3.83,2.27Zm4.67-1.32c.1,.09,.2,.18,.31,.26-.11-.08-.21-.17-.31-.26Z"/>
    <path class="cls-2" d="M39.92,25.86q1.17,0,1.17-1.2t-1.16-1.15-1.12,1.14,1.1,1.21Z"/>
    <path class="cls-2" d="M53.54,25.85q1.19,0,1.19-1.18t-1.15-1.15-1.12,1.11,1.08,1.22Z"/>
    <path class="cls-2" d="M49.07,25.86q1.12,0,1.12-1.12t-1.09-1.22-1.19,1.19,1.16,1.15Z"/>
    <path class="cls-2" d="M44.5,25.86q1.14,0,1.14-1.17t-1.07-1.17-1.21,1.24,1.14,1.11Z"/>
    <path class="cls-2" d="M50.18,33.81q0-1.13-1.11-1.13t-1.17,1.14,1.11,1.13,1.16-1.14Z"/>
    <path class="cls-2" d="M39.92,30.41q1.17,0,1.17-1.14t-1.17-1.14-1.1,1.14,1.11,1.14Z"/>
    <path class="cls-2" d="M44.52,28.13q-1.15,0-1.15,1.16t1.13,1.12,1.15-1.16-1.12-1.12Z"/>
    <path class="cls-2" d="M49.08,30.41q1.11,0,1.11-1.14t-1.17-1.14-1.11,1.14,1.17,1.14Z"/>
    <path class="cls-2" d="M53.62,30.4q1.11,0,1.11-1.13t-1.17-1.14-1.11,1.13,1.17,1.14Z"/>
    <path class="cls-2" d="M53.57,37.23q-1.11,0-1.11,1.13t1.16,1.15,1.11-1.13-1.16-1.15Z"/>
    <path class="cls-2" d="M49.07,37.23q-1.16,0-1.16,1.15t1.12,1.12,1.15-1.15-1.12-1.12Z"/>
    <path class="cls-2" d="M44.44,37.23q-1.07,0-1.07,1.1t1.2,1.17,1.07-1.1-1.2-1.17Z"/>
    <path class="cls-2" d="M39.95,37.23q-1.13,0-1.13,1.11t1.15,1.16,1.13-1.11-1.14-1.16Z"/>
    <path class="cls-2" d="M44.45,34.95q1.19,0,1.19-1.19t-1.09-1.09-1.19,1.19,1.09,1.09Z"/>
    <path class="cls-2" d="M39.97,34.95q1.12,0,1.12-1.12t-1.15-1.16-1.12,1.12,1.15,1.16Z"/>
    <path class="cls-2" d="M53.65,34.95q1.08,0,1.08-1.1t-1.2-1.18-1.08,1.1,1.2,1.18Z"/>
  </g>
  <path id="Shape-20" class="cls-4" d="M37.1,9.15h-8.22c-.72-1.41-2.13-2.33-3.71-2.42-.52,0-1.02,.11-1.5,.31-.94-2.58-3.38-4.3-6.12-4.34-3.61,0-6.54,4.07-6.55,6.45H1.38"/>
  <path id="Shape-23" class="cls-4" d="M39.48,9.15h2.38"/>
</svg>