<?xml version="1.0" encoding="UTF-8"?>
<svg id="Capa_1" data-name="Capa 1" xmlns="http://www.w3.org/2000/svg" viewBox="0 0 83 81">
  <defs>
    <style>
      .cls-1, .cls-2, .cls-3 {
        stroke-width: 1.3px;
      }

      .cls-1, .cls-2, .cls-3, .cls-4, .cls-5 {
        fill: none;
        stroke-miterlimit: 10;
      }

      .cls-1, .cls-4 {
        stroke: #00574c;
      }

      .cls-2 {
        stroke: #00bca5;
      }

      .cls-3, .cls-5 {
        stroke: #bcc0c4;
      }

      .cls-4, .cls-5 {
        stroke-width: 2px;
      }
    </style>
  </defs>
  <path id="Shape-20" class="cls-5" d="M30.97,26.75h-6.3c-.55-1.02-1.64-1.68-2.85-1.75-.4,0-.79,.08-1.15,.23-.72-1.86-2.59-3.11-4.7-3.14-2.77,0-5.01,2.94-5.02,4.66H3.59"/>
  <g>
    <path class="cls-1" d="M75.23,44.12c0-2.36,0-4.72,0-7.08,0-4.43,0-8.85,0-13.28,0-2.49,0-4.98,0-7.46,0-1.74,.05-3.49,0-5.23-.04-1.3-.55-2.44-1.44-3.41-.88-.96-2-1.44-3.23-1.73H13.5s-.01,.07,0,.1c.09,.3,.28,.51,.49,.71-.21-.2-.39-.41-.49-.71-1.82,.34-3.28,1.17-4.08,2.92-.33,.41-.3,.98-.6,1.41v55.9c.18,.13,.16,.34,.21,.51,.69,2.38,2.68,3.84,5.06,3.88,5.59,.09,11.19,.02,16.79,.01h11.41c2.07,0,4.14,0,6.21,0,2.66,0,5.33,0,7.99,0,2.75,0,5.49,0,8.24,0,1.81,0,3.61,.03,5.42,0,.67,0,1.33-.17,1.93-.5,1.51-.68,2.48-1.81,2.92-3.4,.18-.39,.24-.81,.24-1.23,0-3.01,0-6.01-.01-9.02,0-4.13,0-8.26,0-12.39ZM15.02,8.06c2.11,0,4.23,0,6.34,0-.04-.12-.09-.23-.16-.33-.14-.19-.32-.34-.5-.5,.18,.16,.36,.31,.5,.5,.07,.1,.12,.2,.16,.33,2.32,0,4.65,0,6.97,0,0-.06-.01-.12-.03-.18,.01,.05,.02,.11,.03,.18,2.11,0,4.23,0,6.34,0-.04-.12-.1-.23-.17-.33-.14-.19-.33-.34-.5-.5,.18,.16,.36,.31,.5,.5,.07,.1,.13,.2,.17,.32,4.14,0,8.28,0,12.42,0-.1-.28-.28-.49-.49-.68,.2,.19,.38,.4,.49,.68,2.37,0,4.73,0,7.1,0-.11-.37-.41-.59-.67-.83,.26,.24,.56,.46,.67,.83,4.31,0,8.62,0,12.93,0-.04-.12-.1-.23-.17-.32,.07,.1,.13,.2,.17,.32,.86,0,1.73,0,2.59,.02,1.97,.03,3.34,1.4,3.36,3.35,0,1.03,0,2.06,0,3.09-3.17,0-6.34,.01-9.5,.02-.3,0-.59,.02-.89,.03,0,0,0,0,0,0-.78-.01-1.55-.03-2.33-.03-2.94,0-5.88,.02-8.83,.03-2.11-.05-4.23-.06-6.34,0-1.32-.01-2.65-.03-3.97-.03-2.44,0-4.87,.02-7.31,.03,0,0,0,0,0,0-1.4-.05-2.79-.06-4.19,0-1.86-.05-3.72-.06-5.58,0-3.3-.05-6.59-.06-9.89,0-.9-.01-1.8-.04-2.71-.03-.42,0-.62-.1-.59-.56,.07-1.25-.12-2.51,.16-3.76,0,0,0,0,0,0,.88-1.48,2.1-2.33,3.9-2.17Zm55.79,60.35c-.62,.12-1.25,.12-1.88,.12-1.95,0-3.9,.01-5.86,.02-2.75,0-5.49,0-8.24,0-2.66,0-5.33,0-7.99,0-2.07,0-4.14,0-6.21,0-3.8,0-7.61,0-11.41,0-4.75,0-9.51-.05-14.26,0-1.54,.02-2.7-.53-3.57-1.74-.35-.49-.42-1.09-.42-1.69,0-3.2,0-6.41,0-9.61,0-.25-.01-.51-.02-.76-.31-.13-.55-.35-.77-.58,.22,.23,.46,.45,.77,.58,0-4.43,0-8.85,0-13.28,0-2.49,0-4.97,0-7.46h0c0-2.7,0-5.4,0-8.09,0-2.74,0-5.48,0-8.22h0c0-.15,.04-.3,.02-.44-.06-.46,.17-.56,.59-.56,1.41,.01,2.82,0,4.23-.01,3.3,0,6.59,0,9.89,0,1.86,0,3.72,0,5.58,0,1.39,0,2.79,0,4.18,0,3.8,0,7.61,0,11.41,0,2.07,0,4.14,0,6.21,0,3.72,0,7.44,0,11.16,0,2.72,0,5.44,.03,8.16,0,.54,0,.74,.13,.72,.7-.03,1.58,0,3.16,0,4.73,0,4.43,0,8.85,0,13.28,.09,0,.17,0,.24,.04,.14,.05,.25,.16,.36,.27-.11-.11-.22-.22-.36-.27-.07-.03-.15-.04-.24-.04,0,2.36,0,4.72,0,7.08,0,4.09,0,8.18,0,12.27,0,3.5,0,7,0,10.5-.1,1.53-.88,2.58-2.3,3.17Z"/>
    <path class="cls-1" d="M23.24,12.38c1.2-.02,1.13,.18,1.13-.96q0-1.2-1.27-1.2c-1.19,0-1.08-.08-1.08,.95,0,1.32-.2,1.19,1.21,1.2Z"/>
    <path class="cls-1" d="M18.72,12.38c1.28,0,1.13,.16,1.14-1.08-.01-1.18,.13-1.08-.96-1.07-1.34,0-1.2-.18-1.2,1.01,0,1.27-.15,1.14,1.02,1.14Z"/>
    <path class="cls-1" d="M14.31,12.39c1.24-.02,1.1,.15,1.1-1.04,0-1.27,.16-1.11-1.09-1.11-1.22,0-1.06-.15-1.07,1.07,0,1.23-.16,1.07,1.05,1.08Z"/>
  </g>
  <g>
    <path class="cls-2" d="M21.8,37.21s-.08-.01-.13-.01c-.59,0-1.18-.03-1.77,.02-.71,.05-1.07,.45-1.08,1.15,0,1.03,0,2.06,.02,3.09,0,2.11,0,4.22,0,6.32,0,1.85-.03,3.7-.02,5.55,0,.72,.41,1.11,1.14,1.15,.21,.01,.42,0,.63,0,1.44,0,1.42,0,1.44-1.41,0-.54-.09-.84-.72-.75-.2,.03-.51,.09-.43-.32,.17-.9,.06-1.8,.05-2.7-.18,.02-.32-.02-.45-.1,.13,.08,.27,.12,.45,.1,0-2.07,0-4.13,0-6.2,0-.97,.05-1.94,.02-2.9-.02-.55,.06-.9,.73-.81,.37,.05,.57-.21,.49-.56-.12-.54,.39-1.24-.39-1.62Z"/>
    <path class="cls-1" d="M66.45,56.26c.06-1.9,.05-3.8,0-5.69,0-1.28,.08-2.56,0-3.84-.09-1.69-1.46-2.96-3.15-3-1.51-.03-3.03,0-4.54,0-2.41,0-4.82,.01-7.23,.02-1.27,.18-2.05,.93-2.58,2.06-.35,.72-.29,1.47-.35,2.21-1.47,0-2.95,.01-4.42,.02-3.25,0-6.51,0-9.76,0-1.92,0-3.84-.03-5.75-.01-1.19,.02-2.03,.8-2.15,1.98-.07,.69-.1,1.38,.03,2.07-.07,.29-.3,.24-.51,.25-.44,0-.89,0-1.33,0-.18,0-.37,.01-.37,.24,0,.61-.21,1.29,.09,1.79,.2,.33,.82,.08,1.26,.12,.1,0,.21,.01,.32,0,.36-.04,.49,.12,.48,.47-.02,.55-.02,1.1,0,1.64,.07,1.32,.91,2.17,2.24,2.18,3.08,.02,6.16,0,9.25-.01h6.97c.88,0,1.77,.02,2.65,.02,1.01,0,1,0,1.33,.96,.41,1.21,1.24,1.98,2.51,2.22,.96,.18,1.93,.08,2.89,.06,2.77,.01,5.55,.01,8.32,.04,.84,0,1.62-.16,2.34-.6h0c.77-.43,1.21-1.11,1.38-1.94,.23-1.08,.1-2.18,.08-3.27Zm-17.83,.38c-1.82,0-3.63,.02-5.45,.03-2.28,0-4.56,0-6.85,0-2.25,0-4.51-.04-6.76,0-.63,0-.79-.19-.76-.79,.04-.71,0-1.43-.02-2.14h0c.01-.92,.07-1.85,.02-2.77-.04-.67,.2-.8,.82-.79,2.11,.03,4.21,0,6.32-.01,0-.09,0-.16-.03-.23,.03,.07,.04,.14,.03,.23,3.25,0,6.51,0,9.76,0-.01-.12-.04-.22-.09-.31,.04,.09,.07,.19,.09,.31,.8,0,1.6,.04,2.4,.02,.42,0,.54,.14,.54,.55-.02,1.97-.02,3.94-.02,5.91Zm4.44-10.98c-.03-.17-.12-.31-.24-.44,.11,.13,.21,.27,.24,.44Zm10.52,14.14c-.35,.09-.7,.11-1.06,.11-3.28,0-6.56,0-9.84,.02-.15,0-.29-.01-.44-.02-.9-.04-1.3-.43-1.32-1.32-.02-.69-.02-1.38-.02-2.07,0-2.19,0-4.38,0-6.58h0c0-.88,.01-1.76,.02-2.64,0-1.06,.38-1.42,1.45-1.43,.23,0,.46-.02,.69-.03h0c2.45,.04,4.9,.08,7.36-.03,0,0,0,0,0,0,.83,.13,1.67,.03,2.51,.06,.82,.03,1.23,.41,1.27,1.23,.03,.61,.02,1.21,.03,1.82,0,1.94,0,3.88,0,5.82,0,1.23-.03,2.47-.01,3.7,0,.56-.16,1.02-.62,1.36,0,.07,.03,.13,.05,.18-.03-.05-.05-.11-.05-.18Z"/>
    <path class="cls-1" d="M29.52,38.79c1.46-.01,2.93,0,4.39,0,.03,.03,.06,.05,.1,.06,.11,.23,.25,.43,.47,.57,1.51,1.84,3.44,3.03,5.7,3.72,2.88,.87,5.72,.82,8.51-.39,1.49-.54,2.77-1.4,3.94-2.44,1.28-1.13,2.26-2.47,2.86-4.07,.86-1.73,1.12-3.58,1-5.49-.01-.34,.01-.68-.04-1.01-.62-3.84-2.46-6.87-5.89-8.87-1.8-1.05-3.7-1.73-5.8-1.8h0c-1.85-.14-3.65,.1-5.36,.82-2.16,.71-3.92,1.98-5.27,3.81-1.79,1.79-2.55,4.02-2.81,6.47-.16,1.86,0,3.68,.67,5.44,.09,.23,.29,.48,.02,.73-.48-.02-.96-.07-1.43-.06-2.26,.04-1.7-.11-1.79,1.81-.03,.55,.21,.72,.71,.71Zm20.05,.75c-.79,.5-1.63,.89-2.49,1.25,0,0,0,0,0,0-2.61,.65-5.15,.57-7.63-.6-.55-.26-1.05-.59-1.55-.91-.27-.18-.36-.42-.3-.75,.1-.57,.18-1.14,.27-1.71,0,0,0,0,0,0,.31-.7,.69-1.37,1.12-2,.59-.88,1.08-.97,2-.5,2.13,1.07,4.24,1.08,6.29-.23,.36-.22,.64-.13,.95,.15,1.19,1.09,1.76,2.48,2.02,4.03,.09,.6-.2,.97-.69,1.29Zm-8.05-13.53c.15-.08,.3-.16,.44-.24,1.63-.95,3.68-.63,4.92,.76,.91,1.02,.93,2.22,.74,3.46-.41,.98-1.03,1.78-1.99,2.29-.73,.1-1.42,.43-2.19,.29-1.53-.28-2.61-1.11-3.07-2.59-.48-1.54,0-2.86,1.14-3.98,0,0,0,0,0,0Zm-5.71-.59s0,0,0,0c.52-.5,.96-1.05,1.5-1.54,6.62-6.03,13.04-.29,14.34,1.03,1.02,1.03,1.59,2.33,2.07,3.68,.55,2.09,.47,4.16-.22,6.2,.18-.02,.34,0,.48,.08-.14-.07-.3-.1-.48-.08-.2,.41-.39,.82-.59,1.23-.06,.13-.12,.29-.29,.29-.19,0-.2-.19-.24-.31-.49-1.49-1.51-2.61-2.6-3.66-.3-.29-.35-.53-.18-.87,0,0,0,0,0,0,.63-1.17,.8-2.41,.53-3.69-.5-2.35-1.87-4.03-4.18-4.72-2.21-.66-4.34-.41-6.11,1.28-.48,.21-.82,.58-1.1,1-1.3,1.92-1.53,3.95-.56,6.07,.19,.42,.18,.66-.18,.97-.88,.79-1.63,1.7-2.05,2.83-.18,.36-.36,.73-.6,1.23-.98-1.47-1.32-3.04-1.47-4.69h0c-.06-2.33,.64-4.42,1.94-6.33Z"/>
    <path class="cls-2" d="M25.41,39.4c1.27,0,1.11,.16,1.11-1.09,0-1.27,.16-1.11-1.09-1.11-1.27,0-1.1-.16-1.12,1.09,.01,1.27-.16,1.11,1.1,1.11Z"/>
    <path class="cls-3" d="M31.85,52.33q-.88,0-.88,.88s0,.08,0,.13c.02,1.34-.17,1.12,1.12,1.14,.13,0,.26-.02,.38,0,.65,.11,.82-.15,.8-.79-.05-1.37-.01-1.37-1.42-1.37Z"/>
    <path class="cls-3" d="M36.5,52.34c-1.24,0-1.07-.17-1.07,1.06,0,1.26-.16,1.07,1.05,1.09,1.11,0,1.11,0,1.1-1.1-.01-1.22,.17-1.05-1.08-1.05Z"/>
    <path class="cls-3" d="M40.95,52.33c-1.24,.02-1.08-.16-1.08,.99,0,1.29-.16,1.16,.85,1.16,1.47,0,1.29,.17,1.3-.83,.01-1.32,0-1.32-1.07-1.32Z"/>
    <path class="cls-3" d="M45.71,52.33c-.08,.01-.17,0-.25,0-1.14,0-1.15,0-1.14,1.12,0,1.18-.15,1.01,1.04,1.03,1.28-.02,1.09,.18,1.11-1.09,0-.1-.01-.21,0-.31,.1-.62-.16-.85-.77-.75Z"/>
    <path class="cls-2" d="M62.02,52.95c-.02-.53-.21-.99-.79-1.16-.25-.07-.32-.23-.32-.47,0-.27,.02-.55,0-.82-.1-1.36-.77-2.32-2.06-2.82-1.24-.48-2.39-.36-3.4,.54-.84,.67-1.13,1.56-1.14,2.6,0,.33,.18,.73-.24,.96-.7,.14-.98,.46-.99,1.22-.01,1.28-.01,2.57,0,3.85,0,.88,.36,1.3,1.25,1.33,1.48,.05,2.95,.07,4.43-.02,.69,.01,1.39,.06,2.08,.03,.66-.02,1.05-.39,1.13-1.05,.11-.94,.09-1.89,.01-2.83,.01-.46,.05-.92,.04-1.38Zm-5.16-3.17c.94-.58,1.92,.14,1.78,1.21-.03,.23,0,.46,0,.69-.57,0-1.14,0-1.71,.03-.32,0-.45-.11-.46-.44,0-.53-.02-1.06,.39-1.48Zm1.39,6.29c-.34,0-.67,.01-1.01,.02-.44,0-.88-.04-1.32,0-.46,.03-.59-.16-.56-.58,.03-.4,.01-.8,0-1.19,0-.26,.04-.46,.36-.46h0c1.2,0,2.4,.02,3.6,.01,.4,0,.57,.11,.56,.53-.05,2.05,.29,1.64-1.63,1.69Z"/>
  </g>
  <path id="Shape" class="cls-4" d="M8.74,76.96h59.53"/>
  <path id="Shape-2" class="cls-4" d="M69.51,76.96h4.76"/>
  <path id="Shape-3" class="cls-4" d="M75.93,76.96h2.38"/>
  <path id="Shape-4" class="cls-4" d="M4.81,76.96h2.38"/>
</svg>