<svg xmlns="http://www.w3.org/2000/svg" xmlns:xlink="http://www.w3.org/1999/xlink" width="83" height="81" viewBox="0 0 83 81">
  <defs>
    <clipPath id="clip-Icon-2">
      <rect width="83" height="81"/>
    </clipPath>
  </defs>
  <g id="Icon-2" clip-path="url(#clip-Icon-2)">
    <g id="icon-home-1" transform="translate(2.922 9.153)">
      <rect id="Rectangle-path" width="31.043" height="46.566" transform="translate(20.298 21.632)" fill="none" stroke="#00574c" stroke-miterlimit="10" stroke-width="2"/>
      <rect id="Rectangle-path-2" data-name="Rectangle-path" width="23.879" height="5.97" transform="translate(23.88 15.663)" fill="#e9eaeb" stroke="#00574c" stroke-miterlimit="10" stroke-width="2"/>
      <rect id="Rectangle-path-3" data-name="Rectangle-path" width="7.163" height="9.551" transform="translate(33.432 58.647)" fill="#e9eaeb" stroke="#00574c" stroke-miterlimit="10" stroke-width="2"/>
      <path id="Shape" d="M0,5.97V0H5.97V5.97" transform="translate(26.268 32.379)" fill="none" stroke="#00574c" stroke-miterlimit="10" stroke-width="2"/>
      <path id="Shape-2" data-name="Shape" d="M0,5.97V0H5.97V5.97" transform="translate(26.268 41.93)" fill="none" stroke="#00574c" stroke-miterlimit="10" stroke-width="2"/>
      <rect id="Rectangle-path-4" data-name="Rectangle-path" width="11.94" height="29.849" transform="translate(8.358 38.349)" fill="none" stroke="#00574c" stroke-miterlimit="10" stroke-width="2"/>
      <rect id="Rectangle-path-5" data-name="Rectangle-path" width="8.358" height="5.97" transform="translate(11.94 32.379)" fill="#e9eaeb" stroke="#00574c" stroke-miterlimit="10" stroke-width="2"/>
      <path id="Shape-3" data-name="Shape" d="M13.048,0A13.048,13.048,0,0,0,0,13.047c0,11.259,11.126,12.782,12.061,24.23a.986.986,0,0,0,1.969,0c.936-11.448,12.063-12.97,12.063-24.23A13.046,13.046,0,0,0,13.048,0Z" transform="translate(38.382 29.991)" fill="#c1f6fd" stroke="#00574c" stroke-miterlimit="10" stroke-width="2"/>
      <circle id="Oval" cx="4.776" cy="4.776" r="4.776" transform="translate(46.566 38.349)" fill="#fff" stroke="#00574c" stroke-miterlimit="10" stroke-width="2"/>
      <path id="Shape-4" data-name="Shape" d="M0,0H59.7" transform="translate(4.776 68.198)" fill="none" stroke="#00574c" stroke-miterlimit="10" stroke-width="2"/>
      <path id="Shape-5" data-name="Shape" d="M35.82,6.469h-8.24a4.452,4.452,0,0,0-3.724-2.424,4.039,4.039,0,0,0-1.5.312A6.647,6.647,0,0,0,16.209,0C12.587,0,9.65,4.081,9.643,6.469H0" transform="translate(7.164 0.836)" fill="none" stroke="#bcc0c4" stroke-miterlimit="10" stroke-width="2"/>
      <path id="Shape-6" data-name="Shape" d="M8.358,0H0" transform="translate(4.776 16.857)" fill="none" stroke="#bcc0c4" stroke-miterlimit="10" stroke-width="2"/>
      <path id="Shape-7" data-name="Shape" d="M22.686,5.227H19.136C18.31,2.839,16.6,2.244,14.542,2.493A5.062,5.062,0,0,0,10.083,0C7.242,0,4.94,1.646,4.914,5.227H0" transform="translate(53.729 8.048)" fill="none" stroke="#bcc0c4" stroke-miterlimit="10" stroke-width="2"/>
      <path id="Shape-8" data-name="Shape" d="M0,0H2.389" transform="translate(15.522 16.857)" fill="none" stroke="#bcc0c4" stroke-miterlimit="10" stroke-width="2"/>
      <path id="Shape-9" data-name="Shape" d="M0,0H2.387" transform="translate(45.372 7.305)" fill="none" stroke="#bcc0c4" stroke-miterlimit="10" stroke-width="2"/>
      <path id="Shape-10" data-name="Shape" d="M0,0H2.388" transform="translate(50.148 7.305)" fill="none" stroke="#bcc0c4" stroke-miterlimit="10" stroke-width="2"/>
      <path id="Shape-11" data-name="Shape" d="M2.388,0H0" transform="translate(0 68.198)" fill="none" stroke="#00574c" stroke-miterlimit="10" stroke-width="2"/>
      <path id="Shape-12" data-name="Shape" d="M0,0H4.777" transform="translate(66.863 68.198)" fill="none" stroke="#00574c" stroke-miterlimit="10" stroke-width="2"/>
      <path id="Shape-13" data-name="Shape" d="M0,0H2.387" transform="translate(74.028 68.198)" fill="none" stroke="#00574c" stroke-miterlimit="10" stroke-width="2"/>
    </g>
  </g>
</svg>
