<?xml version="1.0" encoding="UTF-8"?><svg id="Capa_1" xmlns="http://www.w3.org/2000/svg" viewBox="0 0 83 81"><defs><style>.cls-1{fill:#00574c;}.cls-2{fill:#c1f6fd;}.cls-3{stroke:#00574c;}.cls-3,.cls-4{fill:none;stroke-miterlimit:10;stroke-width:2px;}.cls-4{stroke:#bcc0c4;}</style></defs><path id="Shape-7" class="cls-4" d="M80.9,51.6h-2.8c-.6-1.9-2-2.3-3.6-2.1-.7-1.2-2-2-3.5-1.9-2.2,0-4,1.3-4,4.1h-3.8"/><path class="cls-1" d="M45.5,71.2c-.6-.1-1.1-.2-1.7-.3-2.3-.5-4.4-1.6-6.4-2.8-5.8-3.2-11.2-6.9-15.7-11.7-4.9-5.2-8.8-11.1-11.9-17.6-.6-1.3-.8-2.8-1.2-4.2,0-.2,0-.4-.1-.6,0-.9,0-1.7,0-2.6,.3-1.2,.5-2.4,.9-3.5,.4-1.1,1-2.2,1.6-3.2,1-1.6,2.1-3.2,3.2-4.7,1.7-2.5,4.7-2.8,6.9-.7,1.9,1.8,3.7,3.7,5.5,5.5,1.8,1.8,1.9,4.2,.2,6.2-.8,.9-1.5,1.8-2.3,2.7-.6,.8-.8,1.7-.3,2.5,2.3,4.4,4.8,8.5,8.4,12,3.2,3,7,5.3,10.9,7.4,.9,.5,1.8,.3,2.6-.3,.9-.7,1.7-1.5,2.5-2.2,2-1.8,4.4-1.7,6.4,.2,1.8,1.8,3.6,3.6,5.4,5.4,2.2,2.2,1.9,5.2-.7,7-1.5,1-3,2-4.4,3-2,1.4-4.2,2.3-6.7,2.5-.1,0-.2,0-.3,.1h-2.7ZM14.5,22.8c-.7,1-1.5,2.1-2.1,3.2-2.3,3.8-2.7,7.8-.8,11.9,2.8,6,6.4,11.6,10.9,16.4,5.2,5.7,11.5,9.9,18.3,13.3,1.8,.9,3.7,1.5,5.8,1.6,4.1,.1,7.2-1.9,10.1-4.1-3-3-5.9-5.9-8.9-8.9-.1,.1-.3,.3-.5,.4-1.5,1.3-3.2,1.5-5,.6-3-1.5-5.8-3.3-8.5-5.3-5.2-4-8.7-9.3-11.6-15-.8-1.5-.4-3,.6-4.4,.2-.3,.4-.5,.6-.7-3-3-6-6-8.9-8.9Zm1.3-1.9c3.1,3.1,6.1,6.1,9.1,9.1,1.4-1.4,1.4-2.7,0-4.1-1.8-1.8-3.6-3.6-5.4-5.4-1.2-1.2-2.8-1-3.7,.4ZM49.6,54.8c3,3,6,6.1,9.1,9.1,1.3-.8,1.6-2.5,.4-3.7-1.8-1.8-3.6-3.7-5.5-5.5-1.4-1.4-2.8-1.3-4,0Z"/><path class="cls-1" d="M38,45.7c-.2,0-.3,0-.4,0-1.7,0-2.7-1.1-2.7-2.8,0-2.4,0-4.7,0-7.1,0-2,0-4,0-5.9,0-1.8,1.1-2.9,2.9-2.9,8,0,16,0,24,0,1.8,0,2.9,1.1,2.9,2.9,0,4.3,0,8.6,0,12.9,0,1.9-1.1,2.9-3,2.9-5.8,0-11.7,0-17.5,0-.3,0-.8,.2-1,.4-1.1,.9-2.3,1.8-3.4,2.7-.4,.3-.8,.6-1.3,.3-.5-.2-.6-.7-.6-1.2,0-.7,0-1.4,0-2.2Zm1.9,.5c.9-.7,1.6-1.3,2.4-1.9,.4-.4,.9-.5,1.5-.5,5.9,0,11.8,0,17.7,0,1.2,0,1.3-.1,1.3-1.3,0-4.1,0-8.2,0-12.3,0-1.1-.2-1.3-1.3-1.3-7.8,0-15.6,0-23.5,0-.2,0-.3,0-.5,0-.5,0-.8,.3-.8,.8,0,4.4,0,8.8,0,13.2,0,.6,.3,.8,.8,.8,.4,0,.9,0,1.3,0,.6,0,1,.4,1,1,0,.4,0,.9,0,1.5Z"/><path class="cls-1" d="M71.5,23.8c0,.8,0,1.5,0,2.2,0,.5-.1,.9-.6,1.2-.5,.2-.9,0-1.2-.3-1.1-.9-2.2-1.8-3.3-2.7-.3-.2-.8-.4-1.1-.4-5.8,0-11.5,0-17.3,0-1.8,0-3.2-1.1-3.1-3.1,0-4.2,0-8.4,0-12.6,0-2,1-3,3-3,8,0,15.9,0,23.9,0,1.9,0,3,1.1,3,2.9,0,4.2,0,8.4,0,12.5,0,2.2-.9,3.1-3.1,3.3Zm-2,.4c0-.2,0-.3,0-.4-.1-2.2,.5-2,2-2,.9,0,1.1-.2,1.1-1.1,0-4.2,0-8.4,0-12.6,0-.9-.2-1.1-1.1-1.1-7.9,0-15.9,0-23.8,0-.9,0-1.1,.2-1.1,1.1,0,4.2,0,8.3,0,12.5,0,1.2,.1,1.3,1.3,1.3,5.9,0,11.8,0,17.6,0,.6,0,1.1,.1,1.6,.6,.7,.6,1.5,1.2,2.2,1.8Z"/><path class="cls-1" d="M17.4,45c-.1-.1-.5-.3-.7-.5-.6-.9-1.1-1.8-1.7-2.7-.3-.6-.2-1.1,.3-1.4,.5-.3,1-.1,1.4,.4,.6,.9,1.1,1.8,1.6,2.7,.4,.8,0,1.5-1,1.5Z"/><path class="cls-2" d="M49.8,37.3c-2.6,0-5.2,0-7.8,0-.2,0-.4,0-.6,0-.5,0-.9-.4-.9-.9,0-.5,.3-.9,.9-1,.1,0,.3,0,.5,0,5.3,0,10.7,0,16,0,.1,0,.2,0,.3,0,.6,0,1,.4,1,1,0,.5-.4,.9-1,1-.5,0-.9,0-1.4,0-2.3,0-4.6,0-7,0Z"/><path class="cls-2" d="M49.9,38.7c2.6,0,5.3,0,7.9,0,.2,0,.4,0,.6,0,.5,0,.8,.4,.8,.9,0,.5-.3,.9-.8,1-.2,0-.5,0-.7,0-5.2,0-10.5,0-15.7,0-.2,0-.3,0-.5,0-.6,0-1-.4-1-1,0-.6,.4-.9,1-1,.5,0,1.1,0,1.6,0,2.3,0,4.5,0,6.8,0Z"/><path class="cls-2" d="M49.8,33.9c-2.6,0-5.3,0-7.9,0-.2,0-.4,0-.6,0-.5,0-.8-.4-.8-.9,0-.5,.2-.9,.7-1,.2,0,.4,0,.6,0,5.3,0,10.7,0,16,0,.2,0,.3,0,.5,0,.5,.1,.8,.4,.8,1,0,.5-.3,.9-.9,.9-.3,0-.6,0-1,0-2.5,0-5,0-7.5,0Z"/><path class="cls-2" d="M59.7,13.5c2.7,0,5.4,0,8.1,0,.3,0,.7,0,.9,.2,.2,.2,.4,.6,.3,.9,0,.3-.4,.5-.7,.7-.1,0-.4,0-.6,0-5.3,0-10.7,0-16,0-.1,0-.2,0-.3,0-.6,0-1-.4-1-1,0-.5,.4-.9,1-.9,1.7,0,3.4,0,5,0,1.1,0,2.2,0,3.3,0Z"/><path class="cls-2" d="M59.7,10.1c2.6,0,5.3,0,7.9,0,.2,0,.4,0,.6,0,.5,0,.9,.4,.9,1,0,.5-.3,.9-.9,1-.1,0-.3,0-.5,0-5.4,0-10.7,0-16.1,0-.2,0-.4,0-.5,0-.5-.1-.8-.5-.8-1,0-.5,.3-.8,.8-.9,.2,0,.4,0,.6,0,2.6,0,5.3,0,7.9,0Z"/><path class="cls-2" d="M59.7,16.8c2.7,0,5.4,0,8.1,0,.5,0,.9,.1,1,.6,0,.3,0,.8-.2,1-.2,.2-.6,.4-1,.4-1.9,0-3.8,0-5.7,0-3.4,0-6.8,0-10.3,0-.2,0-.5,0-.7,0-.5-.1-.8-.5-.7-1,0-.5,.3-.8,.9-.9,.2,0,.4,0,.6,0,2.6,0,5.3,0,7.9,0Z"/><path id="Shape" class="cls-3" d="M6.7,77h59.5"/><path id="Shape-2" class="cls-3" d="M67.5,77h4.8"/><path id="Shape-3" class="cls-3" d="M73.9,77h2.4"/><path id="Shape-5" class="cls-4" d="M35.8,9.1h-8.2c-.7-1.4-2.1-2.3-3.7-2.4-.5,0-1,.1-1.5,.3-.9-2.6-3.4-4.3-6.1-4.4-3.6,0-6.6,4.1-6.6,6.5H0"/><path id="Shape-9" class="cls-4" d="M39.1,9.1h2.4"/><path id="Shape-10" class="cls-4" d="M42.3,9.1h2.4"/></svg>