<?xml version="1.0" encoding="UTF-8"?><svg id="Capa_1" xmlns="http://www.w3.org/2000/svg" viewBox="0 0 83 81"><defs><style>.cls-1{fill:#00574c;}.cls-2{fill:#e8e9ea;}.cls-3{fill:#c2a1fa;}.cls-4{fill:#c1f6fd;}.cls-5{stroke:#00574c;}.cls-5,.cls-6{fill:none;stroke-miterlimit:10;stroke-width:2px;}.cls-6{stroke:#bcc0c4;}</style></defs><path class="cls-2" d="M41.5,62.5c0,.6,0,1.1,0,1.7-.1,1.3-.7,2.3-1.9,2.8-.2,0-.4,.1-.4,.4H4.8c0-.2-.1-.3-.3-.4-1.3-.5-1.8-1.5-1.8-2.9,0-15.6,0-31.2,0-46.8,0-1.7,1.4-3.3,3.1-3.1,.5,0,1,0,1.6,0,0,.4,0,.8,0,1.1,0,14.2,0,28.3,0,42.5,0,2.9,2,4.7,4.6,4.7,9.5,0,19,0,28.6,0,.3,0,.6,0,1,0Z"/><path id="Shape" class="cls-5" d="M6.8,77h13.1"/><path class="cls-4" d="M52.5,29.9c1.9-1.9,3.8-3.8,5.7-5.7,.6-.5,1.1-1.1,1.6-1.7,.4-.5,.7-.4,1.1,0,5,5.1,10,10.1,15.1,15.1,.5,.5,.4,.8,0,1.2-7.6,7.6-15.1,15.1-22.7,22.7-4.7,4.7-9.5,9.5-14.2,14.2-.6,.6-.8,.5-1.4,0-4.4-4.4-8.8-8.8-13.2-13.3-.2-.2-.3-.4-.5-.6,3.6,0,7.3,0,10.9,0-.9,.9-1.8,1.8-2.6,2.7-.5,.6-.5,1.3,0,1.8,.5,.5,1.2,.5,1.7,0,1.5-1.5,2.9-3,4.4-4.4,3.3,0,6.7,0,10,0,2.6,0,4-1.5,4-4,0-3.3,0-6.7,0-10,.2-.2,.4-.3,.6-.5,4.4-4.4,8.7-8.8,13.1-13.1,.2-.2,.4-.3,.5-.5,.3-.3,.3-.7,.2-1.1-.4-1-1.3-1.1-2.1-.3-2.7,2.7-5.4,5.4-8.1,8.1-1.4,1.4-2.8,2.7-4.1,4.1,0-4.8,0-9.7,0-14.5Z"/><path class="cls-1" d="M52.5,29.9c0,4.8,0,9.7,0,14.5,0,1.2,0,2.3,0,3.5,0,3.3,0,6.7,0,10,0,2.6-1.5,4-4,4-3.3,0-6.7,0-10,0-1.1,0-2.3,0-3.4,0-3.6,0-7.3,0-10.9,0-4.5,0-8.9,0-13.4,0-2.6,0-4.1-1.4-4.1-4.1,0-16.7,0-33.3,0-50,0-2.6,1.4-4.1,4.1-4.1,12.6,0,25.2,0,37.8,0,2.6,0,4,1.5,4,4,0,7,0,14.1,0,21.1,0,.3,0,.6,0,.9Zm-11.5,29.6c2.6,0,5.2,0,7.8,0,.8,0,1.2-.5,1.2-1.2,0-2.6,0-5.2,0-7.8,0-1.2,0-2.3,0-3.5,0-4.8,0-9.7,0-14.5,0-.3,0-.5,0-.8,0-7.9,0-15.7,0-23.6,0-1.5-.3-1.8-1.8-1.8-12.5,0-24.9,0-37.4,0-1.5,0-1.8,.3-1.8,1.8,0,16.5,0,33,0,49.5,0,.2,0,.4,0,.6,0,.8,.5,1.3,1.3,1.3,4.2,0,8.5,0,12.7,0,4.8,0,9.7,0,14.5,0,1.1,0,2.3,0,3.4,0Z"/><path class="cls-4" d="M70.1,17.1c5.7,0,10.3,3.9,11.3,9.6,.6,3.5-.3,6.7-2.6,9.4-.3,.4-.5,.4-.9,0-5.1-5.1-10.2-10.2-15.3-15.3-.3-.3-.4-.5,0-.8,2.1-1.8,4.8-2.9,7.5-2.9Z"/><path class="cls-4" d="M35.9,77.7c-4.4,0-9,0-13.5,0-.8,0-1.3-.4-1.3-1.2,0-4.6,0-9.2,0-13.7,4.9,4.9,9.9,9.9,14.8,14.8Z"/><path class="cls-1" d="M54.1,78c-4,0-7.9,0-11.9,0-.1,0-.3,0-.4,0-.5,0-.8-.5-.8-1,0-.5,.3-.9,.8-1,.1,0,.3,0,.4,0,7.9,0,15.9,0,23.8,0,.1,0,.2,0,.4,0,.5,0,.8,.4,.8,1,0,.6-.3,1-.8,1-.1,0-.3,0-.4,0-4,0-7.9,0-11.9,0Z"/><path class="cls-4" d="M30.3,52.3c1.4-1.4,2.8-2.8,4.1-4.2,.2-.2,.4-.4,.5-.6,2.1,0,4.3,0,6.4,0,.9,0,1.5-.5,1.5-1.2,0-.7-.6-1.2-1.4-1.2-1.3,0-2.6,0-3.8,0,1.8-1.8,3.6-3.6,5.3-5.4,.2-.2,.4-.4,.6-.7,.3,.3,.6,.6,.9,.9,.6,.5,1.2,.5,1.7,0,.5-.5,.5-1.1,0-1.7-.3-.3-.6-.6-.9-.9,1.4-1.3,2.7-2.7,4.1-4,.2-.2,.5-.4,.7-.7,0,4.8,0,9.7,0,14.5-2.2,2.2-4.3,4.3-6.5,6.5-.2,.2-.3,.5-.7,.5,0-1.3-.4-1.7-1.6-1.7-3.6,0-7.3,0-10.9,0Z"/><path class="cls-4" d="M23.1,59.5c1.4-1.4,2.8-2.8,4.1-4.2,.2-.2,.4-.4,.5-.6,4.8,0,9.6,0,14.3,0,0,.4-.3,.5-.5,.7-1.3,1.4-2.7,2.7-4,4.1-4.8,0-9.7,0-14.5,0Z"/><path class="cls-4" d="M50.1,50.5c0,2.6,0,5.2,0,7.8,0,.8-.5,1.2-1.2,1.2-2.6,0-5.2,0-7.8,0,3-3,6-6,9-9.1Z"/><path class="cls-1" d="M12.7,32.9c0-1.9,0-3.8,0-5.7,0-1.1,.4-1.5,1.5-1.5,3.8,0,7.7,0,11.5,0,1,0,1.5,.4,1.5,1.5,0,3.9,0,7.7,0,11.6,0,1-.4,1.5-1.5,1.5-3.9,0-7.7,0-11.6,0-1,0-1.4-.4-1.4-1.4,0-2,0-3.9,0-5.9Zm12.1,.2c0-1.5,0-2.9,0-4.4,0-.4-.1-.5-.5-.5-2.9,0-5.7,0-8.6,0-.4,0-.5,.1-.5,.5,0,2.9,0,5.7,0,8.6,0,.4,.1,.5,.5,.5,2.9,0,5.7,0,8.6,0,.4,0,.5-.1,.5-.5,0-1.4,0-2.8,0-4.2Z"/><path class="cls-1" d="M45.3,37.2c.3,.3,.6,.6,.9,.9,.5,.6,.5,1.2,0,1.7-.5,.5-1.1,.5-1.7,0-.3-.3-.6-.6-.9-.9-1.3-1.3-2.6-2.6-3.9-4-.4-.4-.5-.1-.8,0-1.5,1.5-3.1,3.1-4.6,4.6-.4,.4-.9,.7-1.6,.4-.8-.4-.9-1.3-.2-2,1.5-1.5,3-3,4.5-4.5,.5-.5,.5-.7,0-1.2-1.5-1.4-3-2.9-4.4-4.4-.6-.6-.7-1.3-.1-1.9,.5-.5,1.2-.5,1.9,.2,1.5,1.5,3,3,4.5,4.5,.4,.4,.6,.4,.9,0,1.5-1.6,3-3.1,4.6-4.6,.7-.7,1.6-.7,2,0,.4,.6,.2,1.2-.3,1.7-1.5,1.5-3,3-4.5,4.5-.4,.3-.4,.5,0,.9,1.3,1.2,2.6,2.5,3.9,3.8Z"/><path class="cls-1" d="M29.6,18.4c3.8,0,7.6,0,11.5,0,.2,0,.4,0,.6,0,.7,0,1.2,.5,1.2,1.2,0,.7-.5,1.2-1.3,1.2-.2,0-.3,0-.5,0-7.7,0-15.4,0-23.1,0-.2,0-.5,0-.7,0-.6-.1-1-.5-1-1.2,0-.7,.4-1.1,1.1-1.2,.2,0,.5,0,.7,0,3.8,0,7.7,0,11.5,0Z"/><path class="cls-1" d="M37.6,45c1.3,0,2.6,0,3.8,0,.9,0,1.4,.4,1.4,1.2,0,.8-.5,1.2-1.5,1.2-2.1,0-4.3,0-6.4,0-5.6,0-11.2,0-16.9,0-.3,0-.5,0-.8,0-.6,0-1.1-.6-1.1-1.2,0-.7,.4-1.1,1.1-1.2,.2,0,.5,0,.8,0,6.5,0,13,0,19.4,0Z"/><path class="cls-1" d="M42.7,54.3c0,0-.2,.2-.3,.3-.1,0-.3,0-.3,.2,0,0,0,0,0,0-4.8,0-9.6,0-14.3,0-3.3,0-6.7,0-10,0-.6,0-1.1-.2-1.3-.7-.4-.8,.2-1.7,1.2-1.7,2.1,0,4.3,0,6.4,0,2.1,0,4.2,0,6.3,0,3.6,0,7.3,0,10.9,0,1.3,0,1.6,.4,1.6,1.7,0,0,0,0,0,0-.2,0-.2,.2-.2,.3Z"/><path class="cls-1" d="M29.7,11.2c1.9,0,3.8,0,5.6,0,1,0,1.5,.4,1.5,1.2,0,.8-.5,1.2-1.5,1.2-3.8,0-7.7,0-11.5,0-.9,0-1.5-.5-1.5-1.2,0-.8,.6-1.2,1.5-1.2,1.9,0,3.9,0,5.8,0Z"/><path class="cls-3" d="M42.7,54.3c0-.1,0-.3,.2-.3,0,.2,0,.3-.2,.3Z"/><path class="cls-3" d="M42.1,54.7c0-.2,.2-.2,.3-.2,0,.2-.1,.2-.3,.2Z"/><path id="Shape-2" class="cls-5" d="M69.3,77h4.8"/><path id="Shape-3" class="cls-5" d="M75.7,77h2.4"/><path id="Shape-20" class="cls-6" d="M81.6,12.6c-.8-1.5-2.3-2.6-3.9-2.7-.5,0-1.1,.1-1.6,.3-1-2.8-3.6-4.7-6.5-4.8-3.8,0-6.9,4.5-6.9,7.1h-10.2"/></svg>