<?xml version="1.0" encoding="UTF-8"?><svg id="Capa_1" xmlns="http://www.w3.org/2000/svg" viewBox="0 0 83 81"><defs><style>.cls-1{fill:#00574c;}.cls-2{fill:#c1f6fd;}.cls-3{fill:#bcc0c4;}.cls-4{stroke:#00574c;}.cls-4,.cls-5{fill:none;stroke-miterlimit:10;stroke-width:2px;}.cls-5{stroke:#bcc0c4;}</style></defs><path id="Shape" class="cls-4" d="M6.8,77h59.5"/><path id="Shape-2" class="cls-4" d="M67.6,77h4.8"/><path id="Shape-3" class="cls-4" d="M74,77h2.4"/><path class="cls-1" d="M77.8,10.6c1.9,.7,2.5,2.1,2.5,4,0,24.2,0,17.8,0,42,0,.4,0,.8,0,1.2-.1,.7-.6,1-1.3,1.1-.7,0-1.2-.3-1.3-1,0-.4,0-.8,0-1.3,0-18.9,0-7.3,0-26.2,0-1.5,.1-1.3-1.3-1.3-21.1,0-42.3,0-63.4,0q-1.2,0-1.2,1.2c0,22.9,0,15.4,0,38.3q0,1.4,1.3,1.4c21.1,0,42.2,0,63.4,0q1.3,0,1.3-1.3c0-1.6,0-3.1,0-4.7,0-1.1,.5-1.6,1.4-1.6,.8,0,1.3,.6,1.3,1.6,0,1.8,0,3.6,0,5.4,0,2-1.3,3.3-3.4,3.3-21.5,0-43.1,0-64.6,0-2.1,0-3.3-1.3-3.4-3.3,0-.2,0-.4,0-.5,0-28.3,0-26.1,0-54.4,0-1.2,.1-2.2,1.1-3,.4-.3,.9-.6,1.4-.8,3.1,0,6.3,0,9.4,0,.6,.5,1,1.1,.7,1.9-.3,.8-1.1,.9-1.8,.9-2.3,0-4.6,0-6.9,0-.9,0-1.2,.2-1.2,1.1,0,3.7,0,7.4,0,11.1,0,.3,0,.5,0,.8H77.5c0-.4,0-.8,0-1.1,0-3.5,0-7,0-10.5q0-1.4-1.4-1.4c-16,0-32,0-48.1,0-.2,0-.4,0-.6,0-.8,0-1.5,0-1.8-.9-.3-.8,.1-1.4,.7-1.9h51.5Z"/><path class="cls-2" d="M49.7,57.9c.5,1.7,1.1,3.3,1.5,5,.2,.7,.2,1.5,0,2.1-.3,1.4-1.6,2.3-3,2.3-1.4,0-2.7-.8-3.1-2.2-.6-1.8-1.2-3.7-1.8-5.6,0-.3-.2-.5-.4-.6-.8-.2-1.7-.4-2.4-.8-1.5-.9-2.7-4.7-2.1-6.4,.4-1,1.1-1.7,2.1-2,4.8-1.3,7.7-4.7,10.3-8.6,.3-.5,.4-.9,.2-1.5-.6-1.9,.3-3.8,2.1-4.4,1.8-.6,3.6,.5,4.2,2.4,2.2,7.1,4.4,14.1,6.7,21.2,.6,1.8-.3,3.6-2,4.2-1.6,.6-3.7-.4-4.2-2.1-.3-.8-.7-1.2-1.5-1.5-2.1-.8-4.3-1.3-6.6-1.6Zm6.8-.8c-1.4-4.6-2.9-9.1-4.3-13.6-.1,0-.2,0-.2,0-1.8,2.6-4.1,4.7-6.6,6.5-.3,.3-.4,.5-.2,.9,.4,1.3,.9,2.7,1.3,4,.1,.5,.4,.6,.8,.6,1.8,.1,3.6,.3,5.4,.6,1.3,.2,2.5,.6,3.9,1Zm-2.6-19.7c-.2,.2-.6,.4-.7,.7-.1,.3,0,.8,0,1.2,1.9,6.2,3.9,12.4,5.8,18.6,.3,.8,.5,1.6,.8,2.4,.2,.6,.8,.9,1.3,.7,.6-.2,.8-.7,.7-1.3,0-.2-.1-.5-.2-.7-1.3-4.1-2.6-8.2-3.9-12.3-.9-2.8-1.8-5.6-2.6-8.4-.2-.6-.5-1-1.4-1.1Zm-8.8,20.5c.7,2.3,1.4,4.3,2,6.3,.2,.7,.8,1,1.4,.8,.6-.2,.9-.8,.7-1.5-.6-1.8-1.1-3.6-1.7-5.4,0-.2-.3-.4-.4-.4-.6,0-1.2,0-2,.2Zm-.6-2c-.5-1.6-1-3.1-1.5-4.6-.7,.2-1.3,.4-1.8,.6-.6,.2-.9,.7-.7,1.4,.2,.8,.5,1.6,.8,2.4,.2,.6,.7,.9,1.4,.8,.6-.1,1.2-.4,1.9-.6Z"/><path class="cls-1" d="M14.8,39.4c0-4.2,3.4-7.6,7.5-7.6,4.1,0,7.5,3.4,7.6,7.5,0,4.2-3.3,7.6-7.5,7.6-4.2,0-7.6-3.3-7.6-7.5Zm12.1,2.7c1.4-2.2,.9-5.2-1.1-6.9-2.1-1.8-5.2-1.7-7.2,.3-1.8,1.7-2.2,4.8-.8,6.6,.6-.4,1.1-.7,1.7-1.1-.5-2.3-.2-3.5,1.1-4.3,1.1-.7,2.6-.7,3.6,0,1.3,.9,1.6,2.2,1,4.3,.6,.4,1.1,.7,1.7,1.1Zm-7.6,1.6c1.6,1.3,4.7,1.3,6,0-1.7-1.5-4.5-1.5-6,0Zm1.9-4.4c0,.6,.5,1.1,1.1,1,.6,0,1-.5,1-1.1,0-.6-.5-1-1-1.1-.6,0-1.1,.5-1.1,1.1Z"/><path class="cls-3" d="M39.7,40.8c-1.9,0-3.7,0-5.6,0-.2,0-.4,0-.5,0-.2-.2-.6-.4-.6-.7,0-.2,.2-.6,.5-.8,.1-.1,.4,0,.6,0,3.7,0,7.5,0,11.2,0,.1,0,.3,0,.4,0,.4,0,.7,.4,.7,.8,0,.5-.3,.7-.7,.7-.2,0-.3,0-.5,0-1.8,0-3.7,0-5.5,0Z"/><path class="cls-3" d="M37.2,37.6c-1.1,0-2.1,0-3.2,0-.6,0-1-.3-1-.8,0-.5,.4-.8,1-.8,2.1,0,4.3,0,6.4,0,.3,0,.6,.2,.8,.4,.1,.2,.1,.6,0,.8-.2,.2-.5,.4-.8,.4-1.1,0-2.2,0-3.2,0Z"/><path class="cls-1" d="M74.1,44.2c-.1,.2-.4,.6-.7,.8-.7,.3-1.5,.5-2.2,.7-.6,.2-1.1-.2-1.3-.7-.2-.6,.1-1.1,.7-1.3,.7-.3,1.4-.5,2.2-.7,.7-.2,1.3,.3,1.4,1.3Z"/><path class="cls-1" d="M71.3,39.3c-.2,.4-.3,.6-.4,.8-.5,.5-.9,1.1-1.4,1.6-.5,.5-1.1,.5-1.6,0-.4-.4-.4-1,0-1.6,.5-.5,.9-1.1,1.4-1.5,.3-.2,.9-.3,1.2-.2,.3,0,.5,.6,.7,.9Z"/><path class="cls-1" d="M72.9,50.5c-.6-.1-1.5-.3-2.3-.6-.6-.2-.8-.7-.6-1.2,.1-.6,.6-.9,1.1-.8,.8,.1,1.6,.3,2.4,.5,.6,.2,.8,.7,.7,1.3-.1,.6-.5,.9-1.3,.8Z"/><path class="cls-1" d="M66.3,37.1c-.2,.7-.3,1.5-.5,2.3-.2,.6-.7,.8-1.3,.7-.6-.1-.9-.6-.8-1.2,.1-.8,.3-1.5,.5-2.3,.2-.6,.6-.9,1.2-.8,.6,.1,.9,.5,.9,1.3Z"/><path class="cls-1" d="M70.8,55.5c-.4-.1-.6-.2-.8-.3-.6-.5-1.2-1-1.7-1.6-.4-.4-.4-1,0-1.5,.4-.5,1-.5,1.5-.1,.6,.5,1.2,1,1.7,1.6,.2,.3,.3,.8,.2,1.2-.1,.3-.6,.5-.8,.7Z"/><path class="cls-1" d="M45.5,15.8c2.3,0,4.1,1.8,4.1,4.1,0,2.2-1.9,4.1-4.1,4.1-2.2,0-4-1.8-4-4,0-2.3,1.8-4.1,4.1-4.1Zm1.4,4c0-.8-.7-1.3-1.4-1.3-.7,0-1.3,.6-1.3,1.4,0,.7,.6,1.3,1.3,1.3,.7,0,1.4-.6,1.4-1.4Z"/><path class="cls-1" d="M68.1,15.8c2.3,0,4.1,1.8,4.1,4,0,2.2-1.9,4.1-4.1,4.1-2.2,0-4-1.8-4-4,0-2.3,1.8-4.1,4-4.1Zm0,2.7c-.7,0-1.3,.6-1.3,1.3,0,.7,.6,1.4,1.3,1.4,.7,0,1.4-.7,1.3-1.4,0-.7-.6-1.3-1.4-1.3Z"/><path class="cls-1" d="M56.8,15.8c2.3,0,4.1,1.8,4.1,4,0,2.3-1.8,4.1-4.1,4.1-2.2,0-4-1.8-4-4,0-2.2,1.8-4.1,4-4.1Zm0,5.4c.7,0,1.3-.6,1.4-1.3,0-.8-.5-1.4-1.3-1.4-.8,0-1.3,.5-1.4,1.3,0,.8,.6,1.4,1.3,1.4Z"/><path id="Shape-20" class="cls-5" d="M23.9,9.9c-.8-1.5-2.3-2.6-4.1-2.7-.6,0-1.1,.1-1.6,.3-1-2.8-3.7-4.7-6.7-4.8-4,0-7.2,4.5-7.2,7.1H0"/></svg>