<?xml version="1.0" encoding="UTF-8"?><svg id="Capa_1" xmlns="http://www.w3.org/2000/svg" viewBox="0 0 83 81"><defs><style>.cls-1{fill:#00574c;}.cls-2{fill:#969696;}.cls-3{fill:#c1f6fd;}.cls-4{stroke:#00574c;}.cls-4,.cls-5{fill:none;stroke-miterlimit:10;stroke-width:2px;}.cls-5{stroke:#bcc0c4;}</style></defs><path id="Shape-20" class="cls-5" d="M32.6,9.1c-.8-1.5-2.3-2.6-4.1-2.7-.6,0-1.1,.1-1.6,.3-1-2.8-3.7-4.7-6.7-4.8-4,0-7.2,4.5-7.2,7.1H2.4"/><path id="Shape-23" class="cls-5" d="M68.6,9.9h2.6"/><path id="Shape-24" class="cls-5" d="M73.8,9.9h2.6"/><path class="cls-1" d="M44.4,72c-1.2-.2-2.4-.3-3.6-.5-3-.5-5.8-1.4-8.5-2.8-.5-.2-.9-.3-1.4-.2-4.4,1-8.8,1.9-13.2,2.8-2.1,.5-3.7-1.1-3.2-3.2,.3-1.5,.6-2.9,.9-4.4,.1-.7,.6-1,1.1-.9,.6,.1,.9,.6,.7,1.3-.3,1.4-.6,2.9-.9,4.3-.2,.9,.1,1.2,1,1,4.6-1,9.2-2,13.8-2.9,.4,0,1,0,1.3,.1,5.7,2.9,11.8,4,18.1,3.1,10.7-1.6,18.7-7.2,23.4-17,4.9-10.2,4.3-20.5-1.9-30.1-5-7.8-12.3-12.3-21.4-13.7-15.6-2.3-30.5,7.9-34.1,23.3-1.7,7.2-.9,14.2,2.5,20.9,.3,.5,.3,1,.2,1.6-.3,1.5-.6,3-1,4.5,0,.4-.3,.9-.8,.9-.3,0-.7-.1-.9-.4-.2-.2-.2-.7-.1-1,.3-1.4,.6-2.7,.8-4.1,0-.3,0-.6-.1-.9-2.7-5.6-3.8-11.5-3.2-17.7,1.4-14.3,12-26,26.1-28.7,16-3.1,31.6,5.8,37,21.1,.9,2.7,1.5,5.4,1.7,8.2,0,.2,0,.4,.1,.6v4.1c0,.2,0,.4-.1,.6-.3,1.7-.4,3.4-.8,5-2.8,12.5-13.4,22.4-26,24.5-1.2,.2-2.4,.3-3.6,.5h-4.1Z"/><path class="cls-3" d="M31.4,35.2v15.7l5.7-.3,.9-1.9,4,1.4,17.3,.7,1.4-1-.2-2.6-3.6-.9,3.5-.5,.5-2.5-.5-1.6h-2.8s3.5-.8,3.5-.8v-2.9l-3.1-.8,3.3-.6,.4-2.5-.5-1.6h-7.4l.8-2.6s1.9-7-2.6-7-4.2,4-4.4,5.8-5.3,4.9-5.3,4.9c0,0-2.6,1.9-3.4,1.9s-2-.9-2-.9l-2.1-.2-3.3,.5Z"/><path class="cls-1" d="M72.7,37.9c0,14.1-9,25-21.5,27.4-13.8,2.6-27.5-6.4-30.5-20.1-3.1-13.9,5.3-27.8,19.1-31.3,8.3-2.1,16-.4,22.9,4.8,.6,.4,.7,1,.4,1.5-.4,.5-.9,.5-1.5,0-3.3-2.6-7-4.3-11.1-4.9-8.8-1.3-16.4,1.3-22.3,7.9-4.4,4.9-6.5,10.8-6.1,17.4,.7,10.1,5.8,17.4,15.1,21.3,8.7,3.6,17.1,2.3,24.5-3.5,5.4-4.2,8.4-9.9,9-16.7,.6-6.8-1.3-12.8-5.6-18,0,0,0,0-.1-.1-.4-.6-.4-1.1,0-1.5,.4-.4,1-.3,1.4,.3,.9,1.2,1.9,2.4,2.6,3.7,2.4,4.1,3.6,8.6,3.6,11.8Z"/><path class="cls-2" d="M38.3,49.7c-.5,1.8-1.1,2.2-2.7,2.2-1.2,0-2.4,0-3.6,0-1.3,0-2.2-.8-2.2-2.1,0-4.6,0-9.2,0-13.9,0-1.3,.9-2.1,2.1-2.1,1.3,0,2.7,0,4,0,.5,0,1.1,.2,1.5,.6,.5,.6,1.1,.5,1.7,.3,.3,0,.6-.2,.8-.4,1.5-1,2.9-2,4.4-3.1,2.1-1.5,3.3-3.5,3.4-6.1,0-2.4,2.3-3.8,4.7-3,1.9,.6,3.1,2.3,3.1,4.3,0,1.8,0,3.7,0,5.6,1.3,0,2.8,0,4.2,0,2,0,3,1.1,3.1,3.1,0,.9,0,1.8-.7,2.5,0,0,0,.3,0,.5,.4,1.5,.5,2.9-.6,4.2,.5,1.5,.7,3-.3,4.4,0,.1,0,.4,0,.5,.4,.9,.4,1.9,.2,2.8-.3,1.2-1.3,2-2.5,2.1-5,0-10,0-15.1,0-1.3,0-2.5-.5-3.7-1.3-.5-.4-1.2-.6-1.8-.9Zm0-1.8c1.3,0,2.2,.5,3.2,1.1,.7,.4,1.6,.8,2.5,.8,4.9,0,9.8,0,14.7,0,.6,0,.9-.3,.9-.9,0-.3,0-.5,0-.8,0-.6-.3-.9-.9-.9-.6,0-1.3,0-1.9,0-.6,0-1-.4-1-1,0-.5,.4-.9,1.1-.9,.7,0,1.3,0,2,0,1.1,0,1.3-.2,1.3-1.2,0-.1,0-.3,0-.4,0-.6-.3-.9-.9-.9-.6,0-1.2,0-1.8,0-.7,0-1.1-.4-1.1-.9,0-.6,.4-1,1.1-1,.8,0,1.5,0,2.3,0,.7,0,.9-.3,1-1,0-.2,0-.5,0-.7,0-.6-.3-.9-.9-.9-.6,0-1.3,0-1.9,0-.7,0-1.1-.4-1.1-1,0-.5,.4-.9,1.1-.9,.7,0,1.5,0,2.2,0,.3,0,.7-.1,.8-.3,.1-.6,.2-1.2,.1-1.8,0-.5-.7-.5-1.1-.5-2.6,0-5.3,0-7.9,0-.7,0-1.1-.4-1.1-1,0-.6,.4-.9,1.1-1,.3,0,.6,0,1,0,.7,.1,.9-.3,.9-.8,0-1.7,.1-3.3,0-5,0-1.2-.9-2.1-2-2.3-1.1-.2-1.9,.4-2,1.5,0,3.2-1.6,5.5-4.1,7.4-1.1,.8-2.3,1.6-3.5,2.5-1.2,.8-2.3,1.7-3.9,1.6,0,.6,0,1.1,0,1.7,0,.7-.4,1.1-1,1.1-.6,0-.9-.4-.9-1.1,0-.7,0-1.4,0-2.1,0-.5-.1-.6-.6-.6-1.1,0-2.2,0-3.3,0-.5,0-.6,.2-.6,.6,0,1.9,0,3.7,0,5.6,0,2.5,0,5,0,7.4,0,.3,0,.7,.4,.6,1.2,0,2.4,0,3.6,0,.3,0,.4-.1,.4-.5,0-.6,0-1.1,0-1.7,0-1.5,0-3.1,0-4.6,0-.5,.2-.9,.7-1,.3,0,.8,0,1,.3,.2,.2,.2,.6,.2,.9,0,1.5,0,2.9,0,4.5Z"/><path class="cls-1" d="M34.2,29.9c-.2,1.1-.4,1.4-1,1.4-.6,0-.8-.3-1-1.4-1.2-.3-1.5-.5-1.4-1.1,0-.6,.4-.8,1.5-1,0-.7,0-1.5,1.1-1.4,.6,0,.8,.4,.9,1.5,.7,0,1.5,0,1.4,1.1,0,.6-.3,.8-1.4,1Z"/><path d="M34.1,48.6c-.5,0-.9-.5-.9-1,0-.5,.4-.9,.9-.9,.5,0,.9,.4,.9,.9,0,.5-.4,1-1,1Z"/><path id="Shape" class="cls-4" d="M6.8,77h59.5"/><path id="Shape-2" class="cls-4" d="M67.6,77h4.8"/><path id="Shape-3" class="cls-4" d="M74,77h2.4"/></svg>