<?xml version="1.0" encoding="UTF-8"?><svg id="Capa_1" xmlns="http://www.w3.org/2000/svg" viewBox="0 0 83 81"><defs><style>.cls-1{fill:#00574c;}.cls-2{fill:#e8e9ea;}.cls-3{fill:#c1f6fd;}.cls-4{fill:#bcc0c4;}.cls-5{fill:#aff4f9;}.cls-6{stroke:#00574c;}.cls-6,.cls-7{fill:none;stroke-miterlimit:10;stroke-width:2px;}.cls-7{stroke:#bcc0c4;}</style></defs><path id="Shape" class="cls-6" d="M6.7,77h59.5"/><path id="Shape-2" class="cls-6" d="M67.5,77h4.8"/><path id="Shape-3" class="cls-6" d="M73.9,77h2.4"/><path id="Shape-5" class="cls-7" d="M37.5,12.9h-8.2c-.7-1.4-2.1-2.3-3.7-2.4-.5,0-1,.1-1.5,.3-.9-2.6-3.4-4.3-6.1-4.4-3.6,0-6.6,4.1-6.6,6.5H1.7"/><path id="Shape-9" class="cls-7" d="M38.4,12.9h2.4"/><path class="cls-2" d="M50.7,68.4c0,.4,0,.9,0,1.3,0,1-.5,1.8-1.5,2.2-.1,0-.3,.1-.3,.3H22c0-.2,0-.2-.2-.3-1-.4-1.4-1.2-1.4-2.3,0-12.2,0-24.3,0-36.5,0-1.3,1.1-2.6,2.4-2.4,.4,0,.8,0,1.2,0,0,.3,0,.6,0,.9,0,11,0,22.1,0,33.1,0,2.3,1.6,3.7,3.6,3.6,7.4,0,14.9,0,22.3,0,.2,0,.5,0,.7,0Z"/><path class="cls-5" d="M55.6,2.3c.4,.4,.5,.8,.5,1.3,0,.9,0,1.8,0,2.6,0,.7-.4,1.1-.9,1.1-.5,0-.8-.4-.8-1.1,0-.9,0-1.9,0-2.8,0-.5,.1-.9,.6-1.2h.7Z"/><path class="cls-1" d="M50.7,68.4c-.2,0-.5,0-.7,0-7.4,0-14.9,0-22.3,0-2.1,0-3.6-1.3-3.6-3.6,0-11,0-22.1,0-33.1,0-.3,0-.6,0-.9,0-.7,0-1.5,0-2.2,0-1.9,1.3-3.2,3.3-3.2,5.2,0,10.5,0,15.7,0,.6,0,.8-.1,.8-.7,0-1.9-.2-3.8,0-5.7,.8-5.7,5.7-9.9,11.5-9.8,6.3,0,11.3,5,11.3,11.4,0,2.7,0,5.3,0,8,0,.5,.1,.6,.6,.7,2.1,.3,3.4,1.8,3.2,3.7-.2,2-1.7,3.3-3.7,3.3-3.3,0-6.7,0-10,0-.5,0-.7,.1-.7,.7,0,2.6,0,5.2,0,7.8,0,.2,0,.4,0,.6-.1,.4-.4,.7-.8,.7-.4,0-.7-.2-.8-.7,0-.2,0-.5,0-.7,0-2.5,0-5,0-7.4q0-.9-.9-.9c-3.3,0-6.5,0-9.8,0-2.6,0-4.2-2.4-3.4-4.8,.5-1.4,1.5-2.1,2.9-2.2,.5,0,.6-.2,.6-.7,0-1.4,0-1.4-1.4-1.4-4.9,0-9.8,0-14.7,0-1.5,0-2,.4-2,1.9,0,11.9,0,23.9,0,35.8,0,1.5,.4,1.9,1.9,1.9,8.2,0,16.5,0,24.7,0,1.5,0,1.9-.4,1.9-1.9,0-3.3,0-6.6,0-10,0-.2,0-.5,0-.7,0-.4,.4-.7,.8-.7,.5,0,.8,.3,.9,.7,0,.2,0,.4,0,.5,0,3.4,0,6.8,0,10.2,0,2.2-1.3,3.5-3.5,3.5-.6,0-1.2,0-1.8,0ZM63.8,15.9c0-.1,0-.2-.1-.3-2-3.5-5.8-5.3-10.1-4.7-4.2,.5-7.8,4.4-8.1,8.6-.2,3,0,6,0,9.1,0,.4,.2,.5,.5,.5,1.5,0,2.9,0,4.4,0,4.7,0,9.5,0,14.2,0,.5,0,.5-.3,.5-.6,0-2.7,0-5.4,0-8.1,0-1.6-.4-3.1-1.2-4.4Zm-8.6,18.4c2.6,0,5.2,0,7.8,0,1.3,0,2.7,0,4,0,1.1,0,1.8-.9,1.7-2,0-1-.9-1.6-2-1.6-7.6,0-15.3,0-22.9,0-.2,0-.3,0-.5,0-1.1,.1-1.9,1.2-1.5,2.3,.3,.8,.9,1.2,2,1.3,3.8,0,7.6,0,11.4,0Z"/><path class="cls-4" d="M40,53.4c3.5,0,6.9,0,10.4,0,.2,0,.4,0,.5,0,.5,0,.8,.4,.8,.8,0,.5-.3,.7-.7,.8-.2,0-.4,0-.6,0-6.9,0-13.8,0-20.8,0-.2,0-.5,0-.7,0-.4-.1-.6-.4-.6-.8,0-.4,.2-.7,.6-.8,.2,0,.5,0,.7,0,3.5,0,6.9,0,10.4,0Z"/><path class="cls-4" d="M40.1,41.3c-3.5,0-6.9,0-10.4,0-.2,0-.4,0-.6,0-.4,0-.7-.3-.7-.8,0-.5,.2-.7,.6-.8,.2,0,.4,0,.6,0,7,0,13.9,0,20.9,0,.2,0,.4,0,.5,0,.5,0,.7,.4,.7,.9,0,.4-.3,.8-.8,.8-.2,0-.4,0-.6,0-3.4,0-6.9,0-10.3,0Z"/><path class="cls-4" d="M40.1,60.4c3.5,0,7,0,10.6,0,.6,0,1,.2,1.1,.8,0,.6-.3,.9-1.1,.9-7.1,0-14.2,0-21.3,0-.7,0-1.1-.3-1.1-.9,0-.6,.5-.8,1-.8,3.6,0,7.2,0,10.8,0Z"/><path class="cls-4" d="M40,46.6c3.5,0,7.1,0,10.6,0,.6,0,1,.1,1.1,.8,0,.5-.5,.9-1.1,.9-7.1,0-14.2,0-21.3,0-.5,0-1-.1-1.1-.8,0-.6,.3-.9,1-.9,3.1,0,6.2,0,9.3,0,.5,0,1,0,1.4,0Z"/><path class="cls-1" d="M56,49.7c0,.5,0,1.1,0,1.6,0,.5-.3,.9-.8,.9-.6,0-.9-.3-.9-.9,0-1.1,0-2.3,0-3.4,0-.5,.3-.9,.8-.9,.6,0,.8,.4,.9,.9,0,.6,0,1.1,0,1.7Z"/><path class="cls-5" d="M71.9,22.6c-.5,0-1,0-1.6,0-.6,0-1-.4-1-.9,0-.6,.4-.8,1-.8,1,0,2.1,0,3.1,0,.5,0,.9,.3,.9,.8,0,.6-.4,.8-.9,.9-.5,0-1,0-1.6,0Z"/><path class="cls-5" d="M38.4,20.7c.5,0,1,0,1.6,0,.5,0,.9,.3,.9,.8,0,.5-.3,.9-.8,.9-1.1,0-2.2,0-3.3,0-.5,0-.9-.3-.9-.9,0-.6,.4-.8,.9-.8,.5,0,1.1,0,1.6,0Z"/><path class="cls-5" d="M69.1,8.6c0,.3-.2,.6-.4,.7-.7,.7-1.4,1.4-2.1,2.1-.5,.5-.9,.5-1.3,.1-.4-.4-.3-.8,.1-1.3,.7-.7,1.5-1.5,2.2-2.2,.3-.3,.6-.4,1-.2,.3,.2,.5,.4,.5,.7Z"/><path class="cls-5" d="M44.4,11.7c-.2,0-.4,0-.6-.3-.8-.8-1.5-1.5-2.3-2.3-.4-.4-.4-.8,0-1.2,.4-.4,.9-.4,1.3,0,.8,.8,1.5,1.5,2.3,2.3,.3,.3,.4,.6,.2,1-.2,.3-.4,.5-.8,.5Z"/><path class="cls-5" d="M63.8,16c.8,1.4,1.1,2.9,1.2,4.4,0,2.7,0,5.4,0,8.1,0,.3,0,.6-.5,.6-4.7,0-9.5,0-14.2-.1,0-1.7-.2-3.5,.2-5.1,1-4,3.5-6.6,7.5-7.8,1.1-.3,2.2-.5,3.4-.4,.8,0,1.6,.2,2.5,.4Z"/><path class="cls-3" d="M63.8,15.9c-.8-.1-1.6-.3-2.5-.4-1.2,0-2.3,0-3.4,.4-4,1.2-6.4,3.9-7.4,7.9-.4,1.7-.1,3.4-.2,5.1-1.5,0-2.9,0-4.4,0-.4,0-.5,0-.5-.5,0-3-.1-6,0-9.1,.3-4.2,3.9-8.1,8.1-8.6,4.3-.6,8,1.2,10.1,4.7,0,0,0,.2,.1,.3Z"/></svg>